<svg xmlns="http://www.w3.org/2000/svg" xmlns:xlink="http://www.w3.org/1999/xlink" width="150" zoomAndPan="magnify" viewBox="0 0 112.5 37.5" height="50" preserveAspectRatio="xMidYMid meet" version="1.0"><defs><filter x="0%" y="0%" width="100%" height="100%" id="c3c1f1d7d1"><feColorMatrix values="0 0 0 0 1 0 0 0 0 1 0 0 0 0 1 0 0 0 1 0" color-interpolation-filters="sRGB"/></filter><g/><clipPath id="f3292cb929"><path d="M 25 4 L 54 4 L 54 20 L 25 20 Z M 25 4 " clip-rule="nonzero"/></clipPath><clipPath id="844aaf340e"><path d="M 9.828125 -0.738281 L 54.925781 -2.886719 L 56.230469 24.46875 L 11.132812 26.617188 Z M 9.828125 -0.738281 " clip-rule="nonzero"/></clipPath><clipPath id="afb3b00a2c"><path d="M 9.828125 -0.738281 L 54.925781 -2.886719 L 56.230469 24.46875 L 11.132812 26.617188 Z M 9.828125 -0.738281 " clip-rule="nonzero"/></clipPath><clipPath id="28dd8ede3d"><path d="M 44 6 L 49 6 L 49 12 L 44 12 Z M 44 6 " clip-rule="nonzero"/></clipPath><clipPath id="2870bf7d9e"><path d="M 9.828125 -0.738281 L 54.925781 -2.886719 L 56.230469 24.46875 L 11.132812 26.617188 Z M 9.828125 -0.738281 " clip-rule="nonzero"/></clipPath><clipPath id="c9275fc14a"><path d="M 9.828125 -0.738281 L 54.925781 -2.886719 L 56.230469 24.46875 L 11.132812 26.617188 Z M 9.828125 -0.738281 " clip-rule="nonzero"/></clipPath><clipPath id="1e95201c45"><path d="M 12 11 L 41 11 L 41 26 L 12 26 Z M 12 11 " clip-rule="nonzero"/></clipPath><clipPath id="d64215d3f5"><path d="M 9.828125 -0.738281 L 54.925781 -2.886719 L 56.230469 24.46875 L 11.132812 26.617188 Z M 9.828125 -0.738281 " clip-rule="nonzero"/></clipPath><clipPath id="8b7c5e3a89"><path d="M 9.828125 -0.738281 L 54.925781 -2.886719 L 56.230469 24.46875 L 11.132812 26.617188 Z M 9.828125 -0.738281 " clip-rule="nonzero"/></clipPath><clipPath id="1dec5dd2ee"><path d="M 17 13 L 23 13 L 23 19 L 17 19 Z M 17 13 " clip-rule="nonzero"/></clipPath><clipPath id="991440377b"><path d="M 9.828125 -0.738281 L 54.925781 -2.886719 L 56.230469 24.46875 L 11.132812 26.617188 Z M 9.828125 -0.738281 " clip-rule="nonzero"/></clipPath><clipPath id="22447ee027"><path d="M 9.828125 -0.738281 L 54.925781 -2.886719 L 56.230469 24.46875 L 11.132812 26.617188 Z M 9.828125 -0.738281 " clip-rule="nonzero"/></clipPath><clipPath id="ec564b22bb"><path d="M 12 0 L 111.511719 0 L 111.511719 37.007812 L 12 37.007812 Z M 12 0 " clip-rule="nonzero"/></clipPath><clipPath id="2b7ef3ee78"><path d="M 0.726562 0 L 99.511719 0 L 99.511719 37.007812 L 0.726562 37.007812 Z M 0.726562 0 " clip-rule="nonzero"/></clipPath><clipPath id="6d96a85637"><path d="M 0.726562 0 L 99.511719 0 L 99.511719 37.007812 L 0.726562 37.007812 Z M 0.726562 0 " clip-rule="nonzero"/></clipPath><clipPath id="582b2b46b6"><path d="M 13.445312 0 L 99.511719 0 L 99.511719 37.007812 L 13.445312 37.007812 Z M 13.445312 0 " clip-rule="nonzero"/></clipPath><radialGradient gradientTransform="matrix(1.000069, 0, 0, 0.999931, 30.021505, 3.966848)" gradientUnits="userSpaceOnUse" r="46.769631" cx="12.703012" id="d5cd80f3e7" cy="1.781801" fx="12.703012" fy="1.781801"><stop stop-opacity="1" stop-color="rgb(48.18573%, 69.702148%, 23.640442%)" offset="0"/><stop stop-opacity="1" stop-color="rgb(48.077393%, 69.506836%, 23.861694%)" offset="0.00390625"/><stop stop-opacity="1" stop-color="rgb(47.970581%, 69.313049%, 24.084473%)" offset="0.0078125"/><stop stop-opacity="1" stop-color="rgb(47.86377%, 69.117737%, 24.305725%)" offset="0.0117188"/><stop stop-opacity="1" stop-color="rgb(47.756958%, 68.92395%, 24.528503%)" offset="0.015625"/><stop stop-opacity="1" stop-color="rgb(47.648621%, 68.728638%, 24.749756%)" offset="0.0195312"/><stop stop-opacity="1" stop-color="rgb(47.541809%, 68.534851%, 24.972534%)" offset="0.0234375"/><stop stop-opacity="1" stop-color="rgb(47.434998%, 68.339539%, 25.195312%)" offset="0.0273438"/><stop stop-opacity="1" stop-color="rgb(47.32666%, 68.145752%, 25.416565%)" offset="0.03125"/><stop stop-opacity="1" stop-color="rgb(47.219849%, 67.950439%, 25.639343%)" offset="0.0351562"/><stop stop-opacity="1" stop-color="rgb(47.113037%, 67.756653%, 25.860596%)" offset="0.0390625"/><stop stop-opacity="1" stop-color="rgb(47.0047%, 67.56134%, 26.083374%)" offset="0.0429688"/><stop stop-opacity="1" stop-color="rgb(46.897888%, 67.367554%, 26.304626%)" offset="0.046875"/><stop stop-opacity="1" stop-color="rgb(46.791077%, 67.172241%, 26.527405%)" offset="0.0507812"/><stop stop-opacity="1" stop-color="rgb(46.684265%, 66.978455%, 26.750183%)" offset="0.0546875"/><stop stop-opacity="1" stop-color="rgb(46.575928%, 66.783142%, 26.971436%)" offset="0.0585938"/><stop stop-opacity="1" stop-color="rgb(46.469116%, 66.589355%, 27.194214%)" offset="0.0625"/><stop stop-opacity="1" stop-color="rgb(46.362305%, 66.394043%, 27.415466%)" offset="0.0664062"/><stop stop-opacity="1" stop-color="rgb(46.253967%, 66.200256%, 27.638245%)" offset="0.0703125"/><stop stop-opacity="1" stop-color="rgb(46.147156%, 66.004944%, 27.859497%)" offset="0.0742188"/><stop stop-opacity="1" stop-color="rgb(46.040344%, 65.811157%, 28.082275%)" offset="0.078125"/><stop stop-opacity="1" stop-color="rgb(45.933533%, 65.615845%, 28.303528%)" offset="0.0820312"/><stop stop-opacity="1" stop-color="rgb(45.825195%, 65.422058%, 28.526306%)" offset="0.0859375"/><stop stop-opacity="1" stop-color="rgb(45.718384%, 65.226746%, 28.749084%)" offset="0.0898438"/><stop stop-opacity="1" stop-color="rgb(45.611572%, 65.032959%, 28.970337%)" offset="0.09375"/><stop stop-opacity="1" stop-color="rgb(45.503235%, 64.837646%, 29.193115%)" offset="0.0976562"/><stop stop-opacity="1" stop-color="rgb(45.396423%, 64.64386%, 29.414368%)" offset="0.101562"/><stop stop-opacity="1" stop-color="rgb(45.289612%, 64.448547%, 29.637146%)" offset="0.105469"/><stop stop-opacity="1" stop-color="rgb(45.181274%, 64.254761%, 29.858398%)" offset="0.109375"/><stop stop-opacity="1" stop-color="rgb(45.074463%, 64.059448%, 30.081177%)" offset="0.113281"/><stop stop-opacity="1" stop-color="rgb(44.967651%, 63.865662%, 30.303955%)" offset="0.117188"/><stop stop-opacity="1" stop-color="rgb(44.86084%, 63.671875%, 30.525208%)" offset="0.121094"/><stop stop-opacity="1" stop-color="rgb(44.752502%, 63.476562%, 30.747986%)" offset="0.125"/><stop stop-opacity="1" stop-color="rgb(44.645691%, 63.282776%, 30.969238%)" offset="0.128906"/><stop stop-opacity="1" stop-color="rgb(44.538879%, 63.087463%, 31.192017%)" offset="0.132812"/><stop stop-opacity="1" stop-color="rgb(44.430542%, 62.893677%, 31.413269%)" offset="0.136719"/><stop stop-opacity="1" stop-color="rgb(44.32373%, 62.698364%, 31.636047%)" offset="0.140625"/><stop stop-opacity="1" stop-color="rgb(44.216919%, 62.504578%, 31.8573%)" offset="0.144531"/><stop stop-opacity="1" stop-color="rgb(44.108582%, 62.309265%, 32.080078%)" offset="0.148438"/><stop stop-opacity="1" stop-color="rgb(44.00177%, 62.115479%, 32.302856%)" offset="0.152344"/><stop stop-opacity="1" stop-color="rgb(43.894958%, 61.920166%, 32.524109%)" offset="0.15625"/><stop stop-opacity="1" stop-color="rgb(43.788147%, 61.726379%, 32.746887%)" offset="0.160156"/><stop stop-opacity="1" stop-color="rgb(43.67981%, 61.531067%, 32.96814%)" offset="0.164062"/><stop stop-opacity="1" stop-color="rgb(43.572998%, 61.33728%, 33.190918%)" offset="0.167969"/><stop stop-opacity="1" stop-color="rgb(43.466187%, 61.141968%, 33.41217%)" offset="0.171875"/><stop stop-opacity="1" stop-color="rgb(43.357849%, 60.948181%, 33.634949%)" offset="0.175781"/><stop stop-opacity="1" stop-color="rgb(43.251038%, 60.752869%, 33.857727%)" offset="0.179688"/><stop stop-opacity="1" stop-color="rgb(43.144226%, 60.559082%, 34.078979%)" offset="0.183594"/><stop stop-opacity="1" stop-color="rgb(43.035889%, 60.36377%, 34.301758%)" offset="0.1875"/><stop stop-opacity="1" stop-color="rgb(42.929077%, 60.169983%, 34.52301%)" offset="0.191406"/><stop stop-opacity="1" stop-color="rgb(42.822266%, 59.97467%, 34.745789%)" offset="0.195312"/><stop stop-opacity="1" stop-color="rgb(42.715454%, 59.780884%, 34.967041%)" offset="0.199219"/><stop stop-opacity="1" stop-color="rgb(42.607117%, 59.585571%, 35.189819%)" offset="0.203125"/><stop stop-opacity="1" stop-color="rgb(42.500305%, 59.391785%, 35.411072%)" offset="0.207031"/><stop stop-opacity="1" stop-color="rgb(42.393494%, 59.196472%, 35.63385%)" offset="0.210938"/><stop stop-opacity="1" stop-color="rgb(42.285156%, 59.002686%, 35.856628%)" offset="0.214844"/><stop stop-opacity="1" stop-color="rgb(42.178345%, 58.807373%, 36.077881%)" offset="0.21875"/><stop stop-opacity="1" stop-color="rgb(42.071533%, 58.613586%, 36.300659%)" offset="0.222656"/><stop stop-opacity="1" stop-color="rgb(41.964722%, 58.418274%, 36.521912%)" offset="0.226562"/><stop stop-opacity="1" stop-color="rgb(41.856384%, 58.224487%, 36.74469%)" offset="0.230469"/><stop stop-opacity="1" stop-color="rgb(41.749573%, 58.029175%, 36.965942%)" offset="0.234375"/><stop stop-opacity="1" stop-color="rgb(41.642761%, 57.835388%, 37.188721%)" offset="0.238281"/><stop stop-opacity="1" stop-color="rgb(41.534424%, 57.640076%, 37.411499%)" offset="0.242188"/><stop stop-opacity="1" stop-color="rgb(41.427612%, 57.446289%, 37.632751%)" offset="0.246094"/><stop stop-opacity="1" stop-color="rgb(41.320801%, 57.250977%, 37.85553%)" offset="0.25"/><stop stop-opacity="1" stop-color="rgb(41.212463%, 57.05719%, 38.076782%)" offset="0.253906"/><stop stop-opacity="1" stop-color="rgb(41.105652%, 56.861877%, 38.299561%)" offset="0.257812"/><stop stop-opacity="1" stop-color="rgb(40.99884%, 56.668091%, 38.520813%)" offset="0.261719"/><stop stop-opacity="1" stop-color="rgb(40.892029%, 56.472778%, 38.743591%)" offset="0.265625"/><stop stop-opacity="1" stop-color="rgb(40.783691%, 56.278992%, 38.964844%)" offset="0.269531"/><stop stop-opacity="1" stop-color="rgb(40.67688%, 56.083679%, 39.187622%)" offset="0.273438"/><stop stop-opacity="1" stop-color="rgb(40.570068%, 55.889893%, 39.4104%)" offset="0.277344"/><stop stop-opacity="1" stop-color="rgb(40.461731%, 55.69458%, 39.631653%)" offset="0.28125"/><stop stop-opacity="1" stop-color="rgb(40.354919%, 55.500793%, 39.854431%)" offset="0.285156"/><stop stop-opacity="1" stop-color="rgb(40.248108%, 55.307007%, 40.075684%)" offset="0.289062"/><stop stop-opacity="1" stop-color="rgb(40.139771%, 55.111694%, 40.298462%)" offset="0.292969"/><stop stop-opacity="1" stop-color="rgb(40.032959%, 54.917908%, 40.519714%)" offset="0.296875"/><stop stop-opacity="1" stop-color="rgb(39.926147%, 54.722595%, 40.742493%)" offset="0.300781"/><stop stop-opacity="1" stop-color="rgb(39.819336%, 54.528809%, 40.963745%)" offset="0.304688"/><stop stop-opacity="1" stop-color="rgb(39.710999%, 54.333496%, 41.186523%)" offset="0.308594"/><stop stop-opacity="1" stop-color="rgb(39.604187%, 54.139709%, 41.409302%)" offset="0.3125"/><stop stop-opacity="1" stop-color="rgb(39.497375%, 53.944397%, 41.630554%)" offset="0.316406"/><stop stop-opacity="1" stop-color="rgb(39.389038%, 53.75061%, 41.853333%)" offset="0.320312"/><stop stop-opacity="1" stop-color="rgb(39.282227%, 53.555298%, 42.074585%)" offset="0.324219"/><stop stop-opacity="1" stop-color="rgb(39.175415%, 53.361511%, 42.297363%)" offset="0.328125"/><stop stop-opacity="1" stop-color="rgb(39.067078%, 53.166199%, 42.518616%)" offset="0.332031"/><stop stop-opacity="1" stop-color="rgb(38.960266%, 52.972412%, 42.741394%)" offset="0.335938"/><stop stop-opacity="1" stop-color="rgb(38.853455%, 52.7771%, 42.964172%)" offset="0.339844"/><stop stop-opacity="1" stop-color="rgb(38.746643%, 52.583313%, 43.185425%)" offset="0.34375"/><stop stop-opacity="1" stop-color="rgb(38.638306%, 52.388%, 43.408203%)" offset="0.347656"/><stop stop-opacity="1" stop-color="rgb(38.531494%, 52.194214%, 43.629456%)" offset="0.351562"/><stop stop-opacity="1" stop-color="rgb(38.424683%, 51.998901%, 43.852234%)" offset="0.355469"/><stop stop-opacity="1" stop-color="rgb(38.316345%, 51.805115%, 44.073486%)" offset="0.359375"/><stop stop-opacity="1" stop-color="rgb(38.209534%, 51.609802%, 44.296265%)" offset="0.363281"/><stop stop-opacity="1" stop-color="rgb(38.102722%, 51.416016%, 44.517517%)" offset="0.367188"/><stop stop-opacity="1" stop-color="rgb(37.994385%, 51.220703%, 44.740295%)" offset="0.371094"/><stop stop-opacity="1" stop-color="rgb(37.887573%, 51.026917%, 44.963074%)" offset="0.375"/><stop stop-opacity="1" stop-color="rgb(37.780762%, 50.831604%, 45.184326%)" offset="0.378906"/><stop stop-opacity="1" stop-color="rgb(37.67395%, 50.637817%, 45.407104%)" offset="0.382812"/><stop stop-opacity="1" stop-color="rgb(37.565613%, 50.442505%, 45.628357%)" offset="0.386719"/><stop stop-opacity="1" stop-color="rgb(37.458801%, 50.248718%, 45.851135%)" offset="0.390625"/><stop stop-opacity="1" stop-color="rgb(37.35199%, 50.053406%, 46.072388%)" offset="0.394531"/><stop stop-opacity="1" stop-color="rgb(37.243652%, 49.859619%, 46.295166%)" offset="0.398438"/><stop stop-opacity="1" stop-color="rgb(37.136841%, 49.664307%, 46.517944%)" offset="0.402344"/><stop stop-opacity="1" stop-color="rgb(37.030029%, 49.47052%, 46.739197%)" offset="0.40625"/><stop stop-opacity="1" stop-color="rgb(36.923218%, 49.275208%, 46.961975%)" offset="0.410156"/><stop stop-opacity="1" stop-color="rgb(36.81488%, 49.081421%, 47.183228%)" offset="0.414062"/><stop stop-opacity="1" stop-color="rgb(36.708069%, 48.886108%, 47.406006%)" offset="0.417969"/><stop stop-opacity="1" stop-color="rgb(36.601257%, 48.692322%, 47.627258%)" offset="0.421875"/><stop stop-opacity="1" stop-color="rgb(36.49292%, 48.497009%, 47.850037%)" offset="0.425781"/><stop stop-opacity="1" stop-color="rgb(36.386108%, 48.303223%, 48.071289%)" offset="0.429688"/><stop stop-opacity="1" stop-color="rgb(36.279297%, 48.10791%, 48.294067%)" offset="0.433594"/><stop stop-opacity="1" stop-color="rgb(36.170959%, 47.914124%, 48.516846%)" offset="0.4375"/><stop stop-opacity="1" stop-color="rgb(36.064148%, 47.718811%, 48.738098%)" offset="0.441406"/><stop stop-opacity="1" stop-color="rgb(35.957336%, 47.525024%, 48.960876%)" offset="0.445312"/><stop stop-opacity="1" stop-color="rgb(35.850525%, 47.331238%, 49.182129%)" offset="0.449219"/><stop stop-opacity="1" stop-color="rgb(35.742188%, 47.135925%, 49.404907%)" offset="0.453125"/><stop stop-opacity="1" stop-color="rgb(35.635376%, 46.942139%, 49.62616%)" offset="0.457031"/><stop stop-opacity="1" stop-color="rgb(35.528564%, 46.746826%, 49.848938%)" offset="0.460938"/><stop stop-opacity="1" stop-color="rgb(35.420227%, 46.55304%, 50.071716%)" offset="0.464844"/><stop stop-opacity="1" stop-color="rgb(35.313416%, 46.357727%, 50.292969%)" offset="0.46875"/><stop stop-opacity="1" stop-color="rgb(35.206604%, 46.16394%, 50.515747%)" offset="0.472656"/><stop stop-opacity="1" stop-color="rgb(35.098267%, 45.968628%, 50.737%)" offset="0.476562"/><stop stop-opacity="1" stop-color="rgb(34.991455%, 45.774841%, 50.959778%)" offset="0.480469"/><stop stop-opacity="1" stop-color="rgb(34.884644%, 45.579529%, 51.18103%)" offset="0.484375"/><stop stop-opacity="1" stop-color="rgb(34.777832%, 45.385742%, 51.403809%)" offset="0.488281"/><stop stop-opacity="1" stop-color="rgb(34.669495%, 45.19043%, 51.625061%)" offset="0.492188"/><stop stop-opacity="1" stop-color="rgb(34.562683%, 44.996643%, 51.847839%)" offset="0.496094"/><stop stop-opacity="1" stop-color="rgb(34.455872%, 44.801331%, 52.070618%)" offset="0.5"/><stop stop-opacity="1" stop-color="rgb(34.347534%, 44.607544%, 52.29187%)" offset="0.503906"/><stop stop-opacity="1" stop-color="rgb(34.240723%, 44.412231%, 52.514648%)" offset="0.507812"/><stop stop-opacity="1" stop-color="rgb(34.133911%, 44.218445%, 52.735901%)" offset="0.511719"/><stop stop-opacity="1" stop-color="rgb(34.025574%, 44.023132%, 52.958679%)" offset="0.515625"/><stop stop-opacity="1" stop-color="rgb(33.918762%, 43.829346%, 53.179932%)" offset="0.519531"/><stop stop-opacity="1" stop-color="rgb(33.811951%, 43.634033%, 53.40271%)" offset="0.523438"/><stop stop-opacity="1" stop-color="rgb(33.705139%, 43.440247%, 53.623962%)" offset="0.527344"/><stop stop-opacity="1" stop-color="rgb(33.596802%, 43.244934%, 53.846741%)" offset="0.53125"/><stop stop-opacity="1" stop-color="rgb(33.48999%, 43.051147%, 54.069519%)" offset="0.535156"/><stop stop-opacity="1" stop-color="rgb(33.383179%, 42.855835%, 54.290771%)" offset="0.539062"/><stop stop-opacity="1" stop-color="rgb(33.274841%, 42.662048%, 54.51355%)" offset="0.542969"/><stop stop-opacity="1" stop-color="rgb(33.16803%, 42.466736%, 54.734802%)" offset="0.546875"/><stop stop-opacity="1" stop-color="rgb(33.061218%, 42.272949%, 54.957581%)" offset="0.550781"/><stop stop-opacity="1" stop-color="rgb(32.954407%, 42.077637%, 55.178833%)" offset="0.554688"/><stop stop-opacity="1" stop-color="rgb(32.846069%, 41.88385%, 55.401611%)" offset="0.558594"/><stop stop-opacity="1" stop-color="rgb(32.739258%, 41.688538%, 55.62439%)" offset="0.5625"/><stop stop-opacity="1" stop-color="rgb(32.632446%, 41.494751%, 55.845642%)" offset="0.566406"/><stop stop-opacity="1" stop-color="rgb(32.524109%, 41.299438%, 56.06842%)" offset="0.570312"/><stop stop-opacity="1" stop-color="rgb(32.417297%, 41.105652%, 56.289673%)" offset="0.574219"/><stop stop-opacity="1" stop-color="rgb(32.310486%, 40.910339%, 56.512451%)" offset="0.578125"/><stop stop-opacity="1" stop-color="rgb(32.202148%, 40.716553%, 56.733704%)" offset="0.582031"/><stop stop-opacity="1" stop-color="rgb(32.095337%, 40.52124%, 56.956482%)" offset="0.585938"/><stop stop-opacity="1" stop-color="rgb(31.988525%, 40.327454%, 57.177734%)" offset="0.589844"/><stop stop-opacity="1" stop-color="rgb(31.881714%, 40.132141%, 57.400513%)" offset="0.59375"/><stop stop-opacity="1" stop-color="rgb(31.773376%, 39.938354%, 57.623291%)" offset="0.597656"/><stop stop-opacity="1" stop-color="rgb(31.666565%, 39.743042%, 57.844543%)" offset="0.601562"/><stop stop-opacity="1" stop-color="rgb(31.559753%, 39.549255%, 58.067322%)" offset="0.605469"/><stop stop-opacity="1" stop-color="rgb(31.451416%, 39.355469%, 58.288574%)" offset="0.609375"/><stop stop-opacity="1" stop-color="rgb(31.344604%, 39.160156%, 58.511353%)" offset="0.613281"/><stop stop-opacity="1" stop-color="rgb(31.237793%, 38.96637%, 58.732605%)" offset="0.617188"/><stop stop-opacity="1" stop-color="rgb(31.129456%, 38.771057%, 58.955383%)" offset="0.621094"/><stop stop-opacity="1" stop-color="rgb(31.022644%, 38.577271%, 59.178162%)" offset="0.625"/><stop stop-opacity="1" stop-color="rgb(30.915833%, 38.381958%, 59.399414%)" offset="0.628906"/><stop stop-opacity="1" stop-color="rgb(30.809021%, 38.188171%, 59.622192%)" offset="0.632812"/><stop stop-opacity="1" stop-color="rgb(30.700684%, 37.992859%, 59.843445%)" offset="0.636719"/><stop stop-opacity="1" stop-color="rgb(30.593872%, 37.799072%, 60.066223%)" offset="0.640625"/><stop stop-opacity="1" stop-color="rgb(30.487061%, 37.60376%, 60.287476%)" offset="0.644531"/><stop stop-opacity="1" stop-color="rgb(30.378723%, 37.409973%, 60.510254%)" offset="0.648438"/><stop stop-opacity="1" stop-color="rgb(30.271912%, 37.214661%, 60.731506%)" offset="0.652344"/><stop stop-opacity="1" stop-color="rgb(30.1651%, 37.020874%, 60.954285%)" offset="0.65625"/><stop stop-opacity="1" stop-color="rgb(30.056763%, 36.825562%, 61.177063%)" offset="0.660156"/><stop stop-opacity="1" stop-color="rgb(29.949951%, 36.631775%, 61.398315%)" offset="0.664062"/><stop stop-opacity="1" stop-color="rgb(29.84314%, 36.436462%, 61.621094%)" offset="0.667969"/><stop stop-opacity="1" stop-color="rgb(29.736328%, 36.242676%, 61.842346%)" offset="0.671875"/><stop stop-opacity="1" stop-color="rgb(29.627991%, 36.047363%, 62.065125%)" offset="0.675781"/><stop stop-opacity="1" stop-color="rgb(29.521179%, 35.853577%, 62.286377%)" offset="0.679688"/><stop stop-opacity="1" stop-color="rgb(29.414368%, 35.658264%, 62.509155%)" offset="0.683594"/><stop stop-opacity="1" stop-color="rgb(29.30603%, 35.464478%, 62.731934%)" offset="0.6875"/><stop stop-opacity="1" stop-color="rgb(29.199219%, 35.269165%, 62.953186%)" offset="0.691406"/><stop stop-opacity="1" stop-color="rgb(29.092407%, 35.075378%, 63.175964%)" offset="0.695312"/><stop stop-opacity="1" stop-color="rgb(28.98407%, 34.880066%, 63.397217%)" offset="0.699219"/><stop stop-opacity="1" stop-color="rgb(28.877258%, 34.686279%, 63.619995%)" offset="0.703125"/><stop stop-opacity="1" stop-color="rgb(28.770447%, 34.490967%, 63.841248%)" offset="0.707031"/><stop stop-opacity="1" stop-color="rgb(28.663635%, 34.29718%, 64.064026%)" offset="0.710938"/><stop stop-opacity="1" stop-color="rgb(28.555298%, 34.101868%, 64.285278%)" offset="0.714844"/><stop stop-opacity="1" stop-color="rgb(28.448486%, 33.908081%, 64.508057%)" offset="0.71875"/><stop stop-opacity="1" stop-color="rgb(28.341675%, 33.712769%, 64.730835%)" offset="0.722656"/><stop stop-opacity="1" stop-color="rgb(28.233337%, 33.518982%, 64.952087%)" offset="0.726562"/><stop stop-opacity="1" stop-color="rgb(28.126526%, 33.323669%, 65.174866%)" offset="0.730469"/><stop stop-opacity="1" stop-color="rgb(28.019714%, 33.129883%, 65.396118%)" offset="0.734375"/><stop stop-opacity="1" stop-color="rgb(27.912903%, 32.93457%, 65.618896%)" offset="0.738281"/><stop stop-opacity="1" stop-color="rgb(27.804565%, 32.740784%, 65.840149%)" offset="0.742188"/><stop stop-opacity="1" stop-color="rgb(27.697754%, 32.545471%, 66.062927%)" offset="0.746094"/><stop stop-opacity="1" stop-color="rgb(27.590942%, 32.351685%, 66.285706%)" offset="0.75"/><stop stop-opacity="1" stop-color="rgb(27.482605%, 32.156372%, 66.506958%)" offset="0.753906"/><stop stop-opacity="1" stop-color="rgb(27.375793%, 31.962585%, 66.729736%)" offset="0.757812"/><stop stop-opacity="1" stop-color="rgb(27.268982%, 31.767273%, 66.950989%)" offset="0.761719"/><stop stop-opacity="1" stop-color="rgb(27.160645%, 31.573486%, 67.173767%)" offset="0.765625"/><stop stop-opacity="1" stop-color="rgb(27.053833%, 31.378174%, 67.39502%)" offset="0.769531"/><stop stop-opacity="1" stop-color="rgb(26.947021%, 31.184387%, 67.617798%)" offset="0.773438"/><stop stop-opacity="1" stop-color="rgb(26.84021%, 30.990601%, 67.83905%)" offset="0.777344"/><stop stop-opacity="1" stop-color="rgb(26.731873%, 30.795288%, 68.061829%)" offset="0.78125"/><stop stop-opacity="1" stop-color="rgb(26.625061%, 30.601501%, 68.284607%)" offset="0.785156"/><stop stop-opacity="1" stop-color="rgb(26.51825%, 30.406189%, 68.505859%)" offset="0.789062"/><stop stop-opacity="1" stop-color="rgb(26.409912%, 30.212402%, 68.728638%)" offset="0.792969"/><stop stop-opacity="1" stop-color="rgb(26.303101%, 30.01709%, 68.94989%)" offset="0.796875"/><stop stop-opacity="1" stop-color="rgb(26.196289%, 29.823303%, 69.172668%)" offset="0.800781"/><stop stop-opacity="1" stop-color="rgb(26.087952%, 29.627991%, 69.393921%)" offset="0.804688"/><stop stop-opacity="1" stop-color="rgb(25.98114%, 29.434204%, 69.616699%)" offset="0.808594"/><stop stop-opacity="1" stop-color="rgb(25.874329%, 29.238892%, 69.837952%)" offset="0.8125"/><stop stop-opacity="1" stop-color="rgb(25.767517%, 29.045105%, 70.06073%)" offset="0.816406"/><stop stop-opacity="1" stop-color="rgb(25.65918%, 28.849792%, 70.283508%)" offset="0.820312"/><stop stop-opacity="1" stop-color="rgb(25.552368%, 28.656006%, 70.504761%)" offset="0.824219"/><stop stop-opacity="1" stop-color="rgb(25.445557%, 28.460693%, 70.727539%)" offset="0.828125"/><stop stop-opacity="1" stop-color="rgb(25.337219%, 28.266907%, 70.948792%)" offset="0.832031"/><stop stop-opacity="1" stop-color="rgb(25.230408%, 28.071594%, 71.17157%)" offset="0.835938"/><stop stop-opacity="1" stop-color="rgb(25.123596%, 27.877808%, 71.392822%)" offset="0.839844"/><stop stop-opacity="1" stop-color="rgb(25.015259%, 27.682495%, 71.615601%)" offset="0.84375"/><stop stop-opacity="1" stop-color="rgb(24.908447%, 27.488708%, 71.838379%)" offset="0.847656"/><stop stop-opacity="1" stop-color="rgb(24.801636%, 27.293396%, 72.059631%)" offset="0.851562"/><stop stop-opacity="1" stop-color="rgb(24.694824%, 27.099609%, 72.28241%)" offset="0.855469"/><stop stop-opacity="1" stop-color="rgb(24.586487%, 26.904297%, 72.503662%)" offset="0.859375"/><stop stop-opacity="1" stop-color="rgb(24.479675%, 26.71051%, 72.72644%)" offset="0.863281"/><stop stop-opacity="1" stop-color="rgb(24.372864%, 26.515198%, 72.947693%)" offset="0.867188"/><stop stop-opacity="1" stop-color="rgb(24.264526%, 26.321411%, 73.170471%)" offset="0.871094"/><stop stop-opacity="1" stop-color="rgb(24.157715%, 26.126099%, 73.391724%)" offset="0.875"/><stop stop-opacity="1" stop-color="rgb(24.050903%, 25.932312%, 73.614502%)" offset="0.878906"/><stop stop-opacity="1" stop-color="rgb(23.944092%, 25.737%, 73.83728%)" offset="0.882812"/><stop stop-opacity="1" stop-color="rgb(23.835754%, 25.543213%, 74.058533%)" offset="0.886719"/><stop stop-opacity="1" stop-color="rgb(23.728943%, 25.3479%, 74.281311%)" offset="0.890625"/><stop stop-opacity="1" stop-color="rgb(23.622131%, 25.154114%, 74.502563%)" offset="0.894531"/><stop stop-opacity="1" stop-color="rgb(23.513794%, 24.958801%, 74.725342%)" offset="0.898438"/><stop stop-opacity="1" stop-color="rgb(23.406982%, 24.765015%, 74.946594%)" offset="0.902344"/><stop stop-opacity="1" stop-color="rgb(23.300171%, 24.569702%, 75.169373%)" offset="0.90625"/><stop stop-opacity="1" stop-color="rgb(23.191833%, 24.375916%, 75.392151%)" offset="0.910156"/><stop stop-opacity="1" stop-color="rgb(23.085022%, 24.180603%, 75.613403%)" offset="0.914062"/><stop stop-opacity="1" stop-color="rgb(22.97821%, 23.986816%, 75.836182%)" offset="0.917969"/><stop stop-opacity="1" stop-color="rgb(22.871399%, 23.791504%, 76.057434%)" offset="0.921875"/><stop stop-opacity="1" stop-color="rgb(22.763062%, 23.597717%, 76.280212%)" offset="0.925781"/><stop stop-opacity="1" stop-color="rgb(22.65625%, 23.402405%, 76.501465%)" offset="0.929688"/><stop stop-opacity="1" stop-color="rgb(22.549438%, 23.208618%, 76.724243%)" offset="0.933594"/><stop stop-opacity="1" stop-color="rgb(22.441101%, 23.014832%, 76.945496%)" offset="0.9375"/><stop stop-opacity="1" stop-color="rgb(22.33429%, 22.819519%, 77.168274%)" offset="0.941406"/><stop stop-opacity="1" stop-color="rgb(22.227478%, 22.625732%, 77.391052%)" offset="0.945312"/><stop stop-opacity="1" stop-color="rgb(22.119141%, 22.43042%, 77.612305%)" offset="0.949219"/><stop stop-opacity="1" stop-color="rgb(22.012329%, 22.236633%, 77.835083%)" offset="0.953125"/><stop stop-opacity="1" stop-color="rgb(21.905518%, 22.041321%, 78.056335%)" offset="0.957031"/><stop stop-opacity="1" stop-color="rgb(21.798706%, 21.847534%, 78.279114%)" offset="0.960938"/><stop stop-opacity="1" stop-color="rgb(21.690369%, 21.652222%, 78.500366%)" offset="0.964844"/><stop stop-opacity="1" stop-color="rgb(21.583557%, 21.458435%, 78.723145%)" offset="0.96875"/><stop stop-opacity="1" stop-color="rgb(21.476746%, 21.263123%, 78.945923%)" offset="0.972656"/><stop stop-opacity="1" stop-color="rgb(21.368408%, 21.069336%, 79.167175%)" offset="0.976562"/><stop stop-opacity="1" stop-color="rgb(21.261597%, 20.874023%, 79.389954%)" offset="0.980469"/><stop stop-opacity="1" stop-color="rgb(21.154785%, 20.680237%, 79.611206%)" offset="0.984375"/><stop stop-opacity="1" stop-color="rgb(21.046448%, 20.484924%, 79.833984%)" offset="0.988281"/><stop stop-opacity="1" stop-color="rgb(20.939636%, 20.291138%, 80.055237%)" offset="0.992188"/><stop stop-opacity="1" stop-color="rgb(20.832825%, 20.095825%, 80.278015%)" offset="0.996094"/><stop stop-opacity="1" stop-color="rgb(20.779419%, 19.999695%, 80.389404%)" offset="1"/></radialGradient><clipPath id="11bddb81a3"><rect x="0" width="100" y="0" height="38"/></clipPath><clipPath id="af6a8dde0d"><path d="M 0.726562 0 L 99.511719 0 L 99.511719 37.007812 L 0.726562 37.007812 Z M 0.726562 0 " clip-rule="nonzero"/></clipPath><clipPath id="0cfd51c241"><rect x="0" width="100" y="0" height="38"/></clipPath><clipPath id="cf6869b939"><rect x="0" width="100" y="0" height="38"/></clipPath><mask id="e062295e94"><g filter="url(#c3c1f1d7d1)"><g transform="matrix(1, 0, 0, 1, -0.000000000000001776, -0.000000000000001478)"><g clip-path="url(#cf6869b939)"><g clip-path="url(#af6a8dde0d)"><g transform="matrix(1, 0, 0, 1, -0.000000000000001776, -0.000000000000001478)"><g clip-path="url(#0cfd51c241)"><g fill="#000000" fill-opacity="1"><g transform="translate(42.735917, 19.480125)"><g><path d="M 6.5625 -2.703125 C 6.5625 -2.335938 6.472656 -1.988281 6.296875 -1.65625 C 6.117188 -1.320312 5.882812 -1.023438 5.59375 -0.765625 C 5.300781 -0.503906 4.972656 -0.296875 4.609375 -0.140625 C 4.242188 0.00390625 3.867188 0.078125 3.484375 0.078125 C 3.253906 0.078125 2.984375 0.046875 2.671875 -0.015625 C 2.359375 -0.078125 2.050781 -0.171875 1.75 -0.296875 C 1.445312 -0.429688 1.179688 -0.597656 0.953125 -0.796875 C 0.710938 -0.984375 0.535156 -1.210938 0.421875 -1.484375 C 0.304688 -1.765625 0.21875 -2.097656 0.15625 -2.484375 C 0.15625 -2.484375 0.148438 -2.507812 0.140625 -2.5625 C 0.140625 -2.613281 0.140625 -2.648438 0.140625 -2.671875 C 0.140625 -2.828125 0.226562 -2.945312 0.40625 -3.03125 C 0.695312 -3.132812 0.972656 -3.210938 1.234375 -3.265625 C 1.492188 -3.316406 1.660156 -3.347656 1.734375 -3.359375 C 1.828125 -3.359375 1.890625 -3.328125 1.921875 -3.265625 C 1.960938 -3.210938 1.988281 -3.164062 2 -3.125 C 2.070312 -2.875 2.140625 -2.640625 2.203125 -2.421875 C 2.265625 -2.210938 2.367188 -2.039062 2.515625 -1.90625 C 2.671875 -1.769531 2.910156 -1.703125 3.234375 -1.703125 C 3.578125 -1.703125 3.851562 -1.785156 4.0625 -1.953125 C 4.269531 -2.117188 4.375 -2.289062 4.375 -2.46875 C 4.375 -2.664062 4.285156 -2.84375 4.109375 -3 C 3.941406 -3.15625 3.722656 -3.304688 3.453125 -3.453125 C 3.191406 -3.597656 2.910156 -3.753906 2.609375 -3.921875 C 2.316406 -4.097656 2.035156 -4.289062 1.765625 -4.5 C 1.492188 -4.71875 1.269531 -4.972656 1.09375 -5.265625 C 0.925781 -5.566406 0.84375 -5.925781 0.84375 -6.34375 C 0.84375 -6.726562 0.921875 -7.125 1.078125 -7.53125 C 1.234375 -7.9375 1.453125 -8.3125 1.734375 -8.65625 C 2.015625 -9 2.328125 -9.273438 2.671875 -9.484375 C 3.015625 -9.691406 3.378906 -9.796875 3.765625 -9.796875 C 3.960938 -9.796875 4.210938 -9.765625 4.515625 -9.703125 C 4.816406 -9.640625 5.125 -9.539062 5.4375 -9.40625 C 5.757812 -9.28125 6.0625 -9.128906 6.34375 -8.953125 C 6.625 -8.785156 6.851562 -8.585938 7.03125 -8.359375 C 7.207031 -8.128906 7.296875 -7.878906 7.296875 -7.609375 C 7.296875 -7.460938 7.265625 -7.289062 7.203125 -7.09375 C 7.148438 -6.894531 7.085938 -6.707031 7.015625 -6.53125 C 6.953125 -6.351562 6.894531 -6.21875 6.84375 -6.125 C 6.789062 -6.019531 6.738281 -5.953125 6.6875 -5.921875 C 6.644531 -5.890625 6.578125 -5.867188 6.484375 -5.859375 C 6.421875 -5.847656 6.289062 -5.835938 6.09375 -5.828125 C 5.90625 -5.828125 5.71875 -5.828125 5.53125 -5.828125 C 5.34375 -5.828125 5.210938 -5.828125 5.140625 -5.828125 C 4.953125 -5.828125 4.859375 -5.890625 4.859375 -6.015625 C 4.859375 -6.054688 4.875 -6.148438 4.90625 -6.296875 C 4.945312 -6.453125 4.984375 -6.625 5.015625 -6.8125 C 5.046875 -7 5.0625 -7.164062 5.0625 -7.3125 C 5.0625 -7.601562 5 -7.800781 4.875 -7.90625 C 4.75 -8.019531 4.601562 -8.078125 4.4375 -8.078125 C 4.1875 -8.078125 3.957031 -7.984375 3.75 -7.796875 C 3.539062 -7.609375 3.375 -7.390625 3.25 -7.140625 C 3.132812 -6.890625 3.078125 -6.664062 3.078125 -6.46875 C 3.078125 -6.21875 3.160156 -6 3.328125 -5.8125 C 3.492188 -5.632812 3.707031 -5.472656 3.96875 -5.328125 C 4.238281 -5.179688 4.519531 -5.03125 4.8125 -4.875 C 5.101562 -4.726562 5.382812 -4.554688 5.65625 -4.359375 C 5.925781 -4.171875 6.144531 -3.941406 6.3125 -3.671875 C 6.476562 -3.410156 6.5625 -3.085938 6.5625 -2.703125 Z M 6.5625 -2.703125 "/></g></g></g><g fill="#000000" fill-opacity="1"><g transform="translate(49.733575, 19.480125)"><g><path d="M 4.328125 -9.875 C 4.785156 -9.875 5.222656 -9.78125 5.640625 -9.59375 C 6.054688 -9.40625 6.425781 -9.160156 6.75 -8.859375 C 7.070312 -8.554688 7.320312 -8.242188 7.5 -7.921875 C 7.6875 -7.597656 7.78125 -7.304688 7.78125 -7.046875 C 7.78125 -6.515625 7.625 -6.066406 7.3125 -5.703125 C 7 -5.335938 6.601562 -5.035156 6.125 -4.796875 C 6.050781 -4.773438 6.015625 -4.734375 6.015625 -4.671875 C 6.015625 -4.609375 6.039062 -4.5625 6.09375 -4.53125 C 6.382812 -4.289062 6.632812 -4 6.84375 -3.65625 C 7.0625 -3.3125 7.171875 -2.984375 7.171875 -2.671875 C 7.171875 -2.347656 7.054688 -2.023438 6.828125 -1.703125 C 6.597656 -1.390625 6.289062 -1.101562 5.90625 -0.84375 C 5.519531 -0.582031 5.082031 -0.375 4.59375 -0.21875 C 4.113281 -0.0625 3.617188 0.015625 3.109375 0.015625 C 2.960938 0.015625 2.78125 0.0078125 2.5625 0 C 2.34375 -0.0078125 2.179688 -0.0351562 2.078125 -0.078125 C 1.859375 -0.148438 1.632812 -0.273438 1.40625 -0.453125 C 1.1875 -0.628906 0.988281 -0.816406 0.8125 -1.015625 C 0.632812 -1.222656 0.484375 -1.410156 0.359375 -1.578125 C 0.296875 -1.679688 0.265625 -1.800781 0.265625 -1.9375 C 0.265625 -2.101562 0.289062 -2.363281 0.34375 -2.71875 C 0.394531 -3.082031 0.460938 -3.5 0.546875 -3.96875 C 0.628906 -4.445312 0.722656 -4.929688 0.828125 -5.421875 C 0.929688 -5.921875 1.03125 -6.394531 1.125 -6.84375 C 1.226562 -7.289062 1.316406 -7.660156 1.390625 -7.953125 C 1.398438 -7.992188 1.40625 -8.03125 1.40625 -8.0625 C 1.40625 -8.09375 1.40625 -8.128906 1.40625 -8.171875 C 1.40625 -8.273438 1.382812 -8.414062 1.34375 -8.59375 C 1.300781 -8.78125 1.28125 -8.90625 1.28125 -8.96875 C 1.28125 -9.101562 1.347656 -9.191406 1.484375 -9.234375 C 1.691406 -9.347656 1.960938 -9.453125 2.296875 -9.546875 C 2.640625 -9.640625 2.992188 -9.71875 3.359375 -9.78125 C 3.722656 -9.84375 4.046875 -9.875 4.328125 -9.875 Z M 3.53125 -7.921875 C 3.488281 -7.765625 3.4375 -7.578125 3.375 -7.359375 C 3.320312 -7.140625 3.269531 -6.914062 3.21875 -6.6875 C 3.164062 -6.46875 3.117188 -6.273438 3.078125 -6.109375 C 3.046875 -5.941406 3.03125 -5.84375 3.03125 -5.8125 C 3.03125 -5.695312 3.101562 -5.640625 3.25 -5.640625 C 3.476562 -5.640625 3.734375 -5.671875 4.015625 -5.734375 C 4.296875 -5.804688 4.566406 -5.910156 4.828125 -6.046875 C 5.097656 -6.179688 5.316406 -6.347656 5.484375 -6.546875 C 5.648438 -6.742188 5.734375 -6.972656 5.734375 -7.234375 C 5.734375 -7.484375 5.65625 -7.679688 5.5 -7.828125 C 5.34375 -7.972656 5.15625 -8.078125 4.9375 -8.140625 C 4.71875 -8.203125 4.503906 -8.234375 4.296875 -8.234375 C 4.222656 -8.234375 4.144531 -8.234375 4.0625 -8.234375 C 3.976562 -8.234375 3.898438 -8.222656 3.828125 -8.203125 C 3.742188 -8.191406 3.675781 -8.15625 3.625 -8.09375 C 3.582031 -8.039062 3.550781 -7.984375 3.53125 -7.921875 Z M 2.65625 -3.90625 C 2.613281 -3.726562 2.566406 -3.507812 2.515625 -3.25 C 2.472656 -3 2.4375 -2.765625 2.40625 -2.546875 C 2.375 -2.328125 2.359375 -2.195312 2.359375 -2.15625 C 2.359375 -2.0625 2.394531 -1.992188 2.46875 -1.953125 C 2.550781 -1.910156 2.628906 -1.890625 2.703125 -1.890625 C 3.015625 -1.890625 3.347656 -1.941406 3.703125 -2.046875 C 4.066406 -2.148438 4.375 -2.3125 4.625 -2.53125 C 4.875 -2.757812 5 -3.03125 5 -3.34375 C 5 -3.59375 4.921875 -3.773438 4.765625 -3.890625 C 4.609375 -4.003906 4.425781 -4.078125 4.21875 -4.109375 C 4.019531 -4.140625 3.863281 -4.15625 3.75 -4.15625 C 3.707031 -4.15625 3.609375 -4.15625 3.453125 -4.15625 C 3.304688 -4.15625 3.132812 -4.148438 2.9375 -4.140625 C 2.875 -4.140625 2.8125 -4.125 2.75 -4.09375 C 2.695312 -4.0625 2.664062 -4 2.65625 -3.90625 Z M 2.65625 -3.90625 "/></g></g></g><g fill="#000000" fill-opacity="1"><g transform="translate(57.287531, 19.480125)"><g><path d="M 6.5625 -2.703125 C 6.5625 -2.335938 6.472656 -1.988281 6.296875 -1.65625 C 6.117188 -1.320312 5.882812 -1.023438 5.59375 -0.765625 C 5.300781 -0.503906 4.972656 -0.296875 4.609375 -0.140625 C 4.242188 0.00390625 3.867188 0.078125 3.484375 0.078125 C 3.253906 0.078125 2.984375 0.046875 2.671875 -0.015625 C 2.359375 -0.078125 2.050781 -0.171875 1.75 -0.296875 C 1.445312 -0.429688 1.179688 -0.597656 0.953125 -0.796875 C 0.710938 -0.984375 0.535156 -1.210938 0.421875 -1.484375 C 0.304688 -1.765625 0.21875 -2.097656 0.15625 -2.484375 C 0.15625 -2.484375 0.148438 -2.507812 0.140625 -2.5625 C 0.140625 -2.613281 0.140625 -2.648438 0.140625 -2.671875 C 0.140625 -2.828125 0.226562 -2.945312 0.40625 -3.03125 C 0.695312 -3.132812 0.972656 -3.210938 1.234375 -3.265625 C 1.492188 -3.316406 1.660156 -3.347656 1.734375 -3.359375 C 1.828125 -3.359375 1.890625 -3.328125 1.921875 -3.265625 C 1.960938 -3.210938 1.988281 -3.164062 2 -3.125 C 2.070312 -2.875 2.140625 -2.640625 2.203125 -2.421875 C 2.265625 -2.210938 2.367188 -2.039062 2.515625 -1.90625 C 2.671875 -1.769531 2.910156 -1.703125 3.234375 -1.703125 C 3.578125 -1.703125 3.851562 -1.785156 4.0625 -1.953125 C 4.269531 -2.117188 4.375 -2.289062 4.375 -2.46875 C 4.375 -2.664062 4.285156 -2.84375 4.109375 -3 C 3.941406 -3.15625 3.722656 -3.304688 3.453125 -3.453125 C 3.191406 -3.597656 2.910156 -3.753906 2.609375 -3.921875 C 2.316406 -4.097656 2.035156 -4.289062 1.765625 -4.5 C 1.492188 -4.71875 1.269531 -4.972656 1.09375 -5.265625 C 0.925781 -5.566406 0.84375 -5.925781 0.84375 -6.34375 C 0.84375 -6.726562 0.921875 -7.125 1.078125 -7.53125 C 1.234375 -7.9375 1.453125 -8.3125 1.734375 -8.65625 C 2.015625 -9 2.328125 -9.273438 2.671875 -9.484375 C 3.015625 -9.691406 3.378906 -9.796875 3.765625 -9.796875 C 3.960938 -9.796875 4.210938 -9.765625 4.515625 -9.703125 C 4.816406 -9.640625 5.125 -9.539062 5.4375 -9.40625 C 5.757812 -9.28125 6.0625 -9.128906 6.34375 -8.953125 C 6.625 -8.785156 6.851562 -8.585938 7.03125 -8.359375 C 7.207031 -8.128906 7.296875 -7.878906 7.296875 -7.609375 C 7.296875 -7.460938 7.265625 -7.289062 7.203125 -7.09375 C 7.148438 -6.894531 7.085938 -6.707031 7.015625 -6.53125 C 6.953125 -6.351562 6.894531 -6.21875 6.84375 -6.125 C 6.789062 -6.019531 6.738281 -5.953125 6.6875 -5.921875 C 6.644531 -5.890625 6.578125 -5.867188 6.484375 -5.859375 C 6.421875 -5.847656 6.289062 -5.835938 6.09375 -5.828125 C 5.90625 -5.828125 5.71875 -5.828125 5.53125 -5.828125 C 5.34375 -5.828125 5.210938 -5.828125 5.140625 -5.828125 C 4.953125 -5.828125 4.859375 -5.890625 4.859375 -6.015625 C 4.859375 -6.054688 4.875 -6.148438 4.90625 -6.296875 C 4.945312 -6.453125 4.984375 -6.625 5.015625 -6.8125 C 5.046875 -7 5.0625 -7.164062 5.0625 -7.3125 C 5.0625 -7.601562 5 -7.800781 4.875 -7.90625 C 4.75 -8.019531 4.601562 -8.078125 4.4375 -8.078125 C 4.1875 -8.078125 3.957031 -7.984375 3.75 -7.796875 C 3.539062 -7.609375 3.375 -7.390625 3.25 -7.140625 C 3.132812 -6.890625 3.078125 -6.664062 3.078125 -6.46875 C 3.078125 -6.21875 3.160156 -6 3.328125 -5.8125 C 3.492188 -5.632812 3.707031 -5.472656 3.96875 -5.328125 C 4.238281 -5.179688 4.519531 -5.03125 4.8125 -4.875 C 5.101562 -4.726562 5.382812 -4.554688 5.65625 -4.359375 C 5.925781 -4.171875 6.144531 -3.941406 6.3125 -3.671875 C 6.476562 -3.410156 6.5625 -3.085938 6.5625 -2.703125 Z M 6.5625 -2.703125 "/></g></g></g><g fill="#000000" fill-opacity="1"><g transform="translate(64.285189, 19.480125)"><g><path d="M 6.5625 -2.703125 C 6.5625 -2.335938 6.472656 -1.988281 6.296875 -1.65625 C 6.117188 -1.320312 5.882812 -1.023438 5.59375 -0.765625 C 5.300781 -0.503906 4.972656 -0.296875 4.609375 -0.140625 C 4.242188 0.00390625 3.867188 0.078125 3.484375 0.078125 C 3.253906 0.078125 2.984375 0.046875 2.671875 -0.015625 C 2.359375 -0.078125 2.050781 -0.171875 1.75 -0.296875 C 1.445312 -0.429688 1.179688 -0.597656 0.953125 -0.796875 C 0.710938 -0.984375 0.535156 -1.210938 0.421875 -1.484375 C 0.304688 -1.765625 0.21875 -2.097656 0.15625 -2.484375 C 0.15625 -2.484375 0.148438 -2.507812 0.140625 -2.5625 C 0.140625 -2.613281 0.140625 -2.648438 0.140625 -2.671875 C 0.140625 -2.828125 0.226562 -2.945312 0.40625 -3.03125 C 0.695312 -3.132812 0.972656 -3.210938 1.234375 -3.265625 C 1.492188 -3.316406 1.660156 -3.347656 1.734375 -3.359375 C 1.828125 -3.359375 1.890625 -3.328125 1.921875 -3.265625 C 1.960938 -3.210938 1.988281 -3.164062 2 -3.125 C 2.070312 -2.875 2.140625 -2.640625 2.203125 -2.421875 C 2.265625 -2.210938 2.367188 -2.039062 2.515625 -1.90625 C 2.671875 -1.769531 2.910156 -1.703125 3.234375 -1.703125 C 3.578125 -1.703125 3.851562 -1.785156 4.0625 -1.953125 C 4.269531 -2.117188 4.375 -2.289062 4.375 -2.46875 C 4.375 -2.664062 4.285156 -2.84375 4.109375 -3 C 3.941406 -3.15625 3.722656 -3.304688 3.453125 -3.453125 C 3.191406 -3.597656 2.910156 -3.753906 2.609375 -3.921875 C 2.316406 -4.097656 2.035156 -4.289062 1.765625 -4.5 C 1.492188 -4.71875 1.269531 -4.972656 1.09375 -5.265625 C 0.925781 -5.566406 0.84375 -5.925781 0.84375 -6.34375 C 0.84375 -6.726562 0.921875 -7.125 1.078125 -7.53125 C 1.234375 -7.9375 1.453125 -8.3125 1.734375 -8.65625 C 2.015625 -9 2.328125 -9.273438 2.671875 -9.484375 C 3.015625 -9.691406 3.378906 -9.796875 3.765625 -9.796875 C 3.960938 -9.796875 4.210938 -9.765625 4.515625 -9.703125 C 4.816406 -9.640625 5.125 -9.539062 5.4375 -9.40625 C 5.757812 -9.28125 6.0625 -9.128906 6.34375 -8.953125 C 6.625 -8.785156 6.851562 -8.585938 7.03125 -8.359375 C 7.207031 -8.128906 7.296875 -7.878906 7.296875 -7.609375 C 7.296875 -7.460938 7.265625 -7.289062 7.203125 -7.09375 C 7.148438 -6.894531 7.085938 -6.707031 7.015625 -6.53125 C 6.953125 -6.351562 6.894531 -6.21875 6.84375 -6.125 C 6.789062 -6.019531 6.738281 -5.953125 6.6875 -5.921875 C 6.644531 -5.890625 6.578125 -5.867188 6.484375 -5.859375 C 6.421875 -5.847656 6.289062 -5.835938 6.09375 -5.828125 C 5.90625 -5.828125 5.71875 -5.828125 5.53125 -5.828125 C 5.34375 -5.828125 5.210938 -5.828125 5.140625 -5.828125 C 4.953125 -5.828125 4.859375 -5.890625 4.859375 -6.015625 C 4.859375 -6.054688 4.875 -6.148438 4.90625 -6.296875 C 4.945312 -6.453125 4.984375 -6.625 5.015625 -6.8125 C 5.046875 -7 5.0625 -7.164062 5.0625 -7.3125 C 5.0625 -7.601562 5 -7.800781 4.875 -7.90625 C 4.75 -8.019531 4.601562 -8.078125 4.4375 -8.078125 C 4.1875 -8.078125 3.957031 -7.984375 3.75 -7.796875 C 3.539062 -7.609375 3.375 -7.390625 3.25 -7.140625 C 3.132812 -6.890625 3.078125 -6.664062 3.078125 -6.46875 C 3.078125 -6.21875 3.160156 -6 3.328125 -5.8125 C 3.492188 -5.632812 3.707031 -5.472656 3.96875 -5.328125 C 4.238281 -5.179688 4.519531 -5.03125 4.8125 -4.875 C 5.101562 -4.726562 5.382812 -4.554688 5.65625 -4.359375 C 5.925781 -4.171875 6.144531 -3.941406 6.3125 -3.671875 C 6.476562 -3.410156 6.5625 -3.085938 6.5625 -2.703125 Z M 6.5625 -2.703125 "/></g></g></g><g fill="#000000" fill-opacity="1"><g transform="translate(71.282846, 19.480125)"><g><path d="M 4.328125 -9.875 C 4.785156 -9.875 5.222656 -9.78125 5.640625 -9.59375 C 6.054688 -9.40625 6.425781 -9.160156 6.75 -8.859375 C 7.070312 -8.554688 7.320312 -8.242188 7.5 -7.921875 C 7.6875 -7.597656 7.78125 -7.304688 7.78125 -7.046875 C 7.78125 -6.515625 7.625 -6.066406 7.3125 -5.703125 C 7 -5.335938 6.601562 -5.035156 6.125 -4.796875 C 6.050781 -4.773438 6.015625 -4.734375 6.015625 -4.671875 C 6.015625 -4.609375 6.039062 -4.5625 6.09375 -4.53125 C 6.382812 -4.289062 6.632812 -4 6.84375 -3.65625 C 7.0625 -3.3125 7.171875 -2.984375 7.171875 -2.671875 C 7.171875 -2.347656 7.054688 -2.023438 6.828125 -1.703125 C 6.597656 -1.390625 6.289062 -1.101562 5.90625 -0.84375 C 5.519531 -0.582031 5.082031 -0.375 4.59375 -0.21875 C 4.113281 -0.0625 3.617188 0.015625 3.109375 0.015625 C 2.960938 0.015625 2.78125 0.0078125 2.5625 0 C 2.34375 -0.0078125 2.179688 -0.0351562 2.078125 -0.078125 C 1.859375 -0.148438 1.632812 -0.273438 1.40625 -0.453125 C 1.1875 -0.628906 0.988281 -0.816406 0.8125 -1.015625 C 0.632812 -1.222656 0.484375 -1.410156 0.359375 -1.578125 C 0.296875 -1.679688 0.265625 -1.800781 0.265625 -1.9375 C 0.265625 -2.101562 0.289062 -2.363281 0.34375 -2.71875 C 0.394531 -3.082031 0.460938 -3.5 0.546875 -3.96875 C 0.628906 -4.445312 0.722656 -4.929688 0.828125 -5.421875 C 0.929688 -5.921875 1.03125 -6.394531 1.125 -6.84375 C 1.226562 -7.289062 1.316406 -7.660156 1.390625 -7.953125 C 1.398438 -7.992188 1.40625 -8.03125 1.40625 -8.0625 C 1.40625 -8.09375 1.40625 -8.128906 1.40625 -8.171875 C 1.40625 -8.273438 1.382812 -8.414062 1.34375 -8.59375 C 1.300781 -8.78125 1.28125 -8.90625 1.28125 -8.96875 C 1.28125 -9.101562 1.347656 -9.191406 1.484375 -9.234375 C 1.691406 -9.347656 1.960938 -9.453125 2.296875 -9.546875 C 2.640625 -9.640625 2.992188 -9.71875 3.359375 -9.78125 C 3.722656 -9.84375 4.046875 -9.875 4.328125 -9.875 Z M 3.53125 -7.921875 C 3.488281 -7.765625 3.4375 -7.578125 3.375 -7.359375 C 3.320312 -7.140625 3.269531 -6.914062 3.21875 -6.6875 C 3.164062 -6.46875 3.117188 -6.273438 3.078125 -6.109375 C 3.046875 -5.941406 3.03125 -5.84375 3.03125 -5.8125 C 3.03125 -5.695312 3.101562 -5.640625 3.25 -5.640625 C 3.476562 -5.640625 3.734375 -5.671875 4.015625 -5.734375 C 4.296875 -5.804688 4.566406 -5.910156 4.828125 -6.046875 C 5.097656 -6.179688 5.316406 -6.347656 5.484375 -6.546875 C 5.648438 -6.742188 5.734375 -6.972656 5.734375 -7.234375 C 5.734375 -7.484375 5.65625 -7.679688 5.5 -7.828125 C 5.34375 -7.972656 5.15625 -8.078125 4.9375 -8.140625 C 4.71875 -8.203125 4.503906 -8.234375 4.296875 -8.234375 C 4.222656 -8.234375 4.144531 -8.234375 4.0625 -8.234375 C 3.976562 -8.234375 3.898438 -8.222656 3.828125 -8.203125 C 3.742188 -8.191406 3.675781 -8.15625 3.625 -8.09375 C 3.582031 -8.039062 3.550781 -7.984375 3.53125 -7.921875 Z M 2.65625 -3.90625 C 2.613281 -3.726562 2.566406 -3.507812 2.515625 -3.25 C 2.472656 -3 2.4375 -2.765625 2.40625 -2.546875 C 2.375 -2.328125 2.359375 -2.195312 2.359375 -2.15625 C 2.359375 -2.0625 2.394531 -1.992188 2.46875 -1.953125 C 2.550781 -1.910156 2.628906 -1.890625 2.703125 -1.890625 C 3.015625 -1.890625 3.347656 -1.941406 3.703125 -2.046875 C 4.066406 -2.148438 4.375 -2.3125 4.625 -2.53125 C 4.875 -2.757812 5 -3.03125 5 -3.34375 C 5 -3.59375 4.921875 -3.773438 4.765625 -3.890625 C 4.609375 -4.003906 4.425781 -4.078125 4.21875 -4.109375 C 4.019531 -4.140625 3.863281 -4.15625 3.75 -4.15625 C 3.707031 -4.15625 3.609375 -4.15625 3.453125 -4.15625 C 3.304688 -4.15625 3.132812 -4.148438 2.9375 -4.140625 C 2.875 -4.140625 2.8125 -4.125 2.75 -4.09375 C 2.695312 -4.0625 2.664062 -4 2.65625 -3.90625 Z M 2.65625 -3.90625 "/></g></g></g><g fill="#000000" fill-opacity="1"><g transform="translate(78.836803, 19.480125)"><g><path d="M 7.484375 -9.3125 C 7.566406 -9.269531 7.628906 -9.210938 7.671875 -9.140625 C 7.710938 -9.078125 7.738281 -9.007812 7.75 -8.9375 L 7.75 -8.5625 C 7.75 -8.144531 7.71875 -7.644531 7.65625 -7.0625 C 7.601562 -6.476562 7.519531 -5.863281 7.40625 -5.21875 C 7.289062 -4.582031 7.132812 -3.953125 6.9375 -3.328125 C 6.738281 -2.710938 6.492188 -2.148438 6.203125 -1.640625 C 5.921875 -1.128906 5.582031 -0.722656 5.1875 -0.421875 C 4.789062 -0.117188 4.335938 0.03125 3.828125 0.03125 C 3.421875 0.03125 3.023438 -0.0390625 2.640625 -0.1875 C 2.253906 -0.34375 1.914062 -0.53125 1.625 -0.75 C 1.332031 -0.976562 1.113281 -1.191406 0.96875 -1.390625 C 0.8125 -1.617188 0.691406 -1.90625 0.609375 -2.25 C 0.535156 -2.59375 0.5 -2.9375 0.5 -3.28125 C 0.5 -3.882812 0.546875 -4.503906 0.640625 -5.140625 C 0.742188 -5.773438 0.867188 -6.378906 1.015625 -6.953125 C 1.171875 -7.535156 1.328125 -8.050781 1.484375 -8.5 C 1.640625 -8.945312 1.773438 -9.28125 1.890625 -9.5 C 1.941406 -9.582031 1.992188 -9.640625 2.046875 -9.671875 C 2.097656 -9.710938 2.171875 -9.734375 2.265625 -9.734375 C 2.367188 -9.734375 2.503906 -9.710938 2.671875 -9.671875 C 2.847656 -9.628906 3.03125 -9.578125 3.21875 -9.515625 C 3.414062 -9.453125 3.570312 -9.398438 3.6875 -9.359375 C 3.75 -9.335938 3.789062 -9.296875 3.8125 -9.234375 C 3.84375 -9.179688 3.859375 -9.125 3.859375 -9.0625 C 3.859375 -9.019531 3.851562 -8.984375 3.84375 -8.953125 C 3.832031 -8.921875 3.828125 -8.90625 3.828125 -8.90625 C 3.679688 -8.507812 3.535156 -8.054688 3.390625 -7.546875 C 3.242188 -7.035156 3.109375 -6.507812 2.984375 -5.96875 C 2.867188 -5.4375 2.773438 -4.925781 2.703125 -4.4375 C 2.628906 -3.945312 2.59375 -3.53125 2.59375 -3.1875 C 2.59375 -2.8125 2.640625 -2.503906 2.734375 -2.265625 C 2.835938 -2.023438 3.035156 -1.90625 3.328125 -1.90625 C 3.609375 -1.90625 3.847656 -2.03125 4.046875 -2.28125 C 4.242188 -2.53125 4.421875 -2.863281 4.578125 -3.28125 C 4.734375 -3.695312 4.875 -4.160156 5 -4.671875 C 5.113281 -5.109375 5.210938 -5.5625 5.296875 -6.03125 C 5.390625 -6.507812 5.46875 -6.96875 5.53125 -7.40625 C 5.601562 -7.851562 5.65625 -8.253906 5.6875 -8.609375 C 5.726562 -8.972656 5.757812 -9.242188 5.78125 -9.421875 C 5.800781 -9.578125 5.882812 -9.65625 6.03125 -9.65625 C 6.113281 -9.65625 6.242188 -9.632812 6.421875 -9.59375 C 6.609375 -9.5625 6.800781 -9.519531 7 -9.46875 C 7.207031 -9.414062 7.367188 -9.363281 7.484375 -9.3125 Z M 7.484375 -9.3125 "/></g></g></g></g></g></g></g></g></g></mask><clipPath id="b28d168c03"><path d="M 13.445312 0 L 99.511719 0 L 99.511719 37.007812 L 13.445312 37.007812 Z M 13.445312 0 " clip-rule="nonzero"/></clipPath><clipPath id="702dad80bb"><rect x="0" width="100" y="0" height="38"/></clipPath><clipPath id="fd043abc89"><rect x="0" width="100" y="0" height="38"/></clipPath><clipPath id="6445bf62de"><rect x="0" width="100" y="0" height="38"/></clipPath><clipPath id="73e35cb3fc"><path d="M 52 6 L 59.28125 6 L 59.28125 16 L 52 16 Z M 52 6 " clip-rule="nonzero"/></clipPath><clipPath id="bde9ca3961"><rect x="0" width="60" y="0" height="17"/></clipPath></defs><g clip-path="url(#f3292cb929)"><g clip-path="url(#844aaf340e)"><g clip-path="url(#afb3b00a2c)"><path fill="#004aad" d="M 46.039062 13.632812 C 54.125 10.355469 52.589844 4.457031 52.589844 4.457031 C 55.789062 12.242188 45.191406 19.445312 45.191406 19.445312 C 44.28125 18.097656 43.34375 16.84375 42.347656 15.707031 C 30.625 2.304688 25.78125 12.929688 25.78125 12.929688 C 31.074219 -1.75 46.039062 13.632812 46.039062 13.632812 " fill-opacity="1" fill-rule="nonzero"/></g></g></g><g clip-path="url(#28dd8ede3d)"><g clip-path="url(#2870bf7d9e)"><g clip-path="url(#c9275fc14a)"><path fill="#004aad" d="M 44.082031 9.472656 C 44.152344 10.925781 45.261719 12.054688 46.5625 11.996094 C 47.863281 11.933594 48.863281 10.703125 48.792969 9.25 C 48.722656 7.792969 47.613281 6.664062 46.3125 6.726562 C 45.011719 6.789062 44.015625 8.019531 44.082031 9.472656 " fill-opacity="1" fill-rule="nonzero"/></g></g></g><g clip-path="url(#1e95201c45)"><g clip-path="url(#d64215d3f5)"><g clip-path="url(#8b7c5e3a89)"><path fill="#e69613" d="M 20.648438 20.125 C 12.289062 17.632812 13.253906 11.613281 13.253906 11.613281 C 10.8125 19.667969 22.046875 25.832031 22.046875 25.832031 C 22.824219 24.40625 23.636719 23.066406 24.519531 21.839844 C 34.917969 7.382812 40.75 17.5 40.75 17.5 C 34.085938 3.390625 20.648438 20.125 20.648438 20.125 " fill-opacity="1" fill-rule="nonzero"/></g></g></g><g clip-path="url(#1dec5dd2ee)"><g clip-path="url(#991440377b)"><g clip-path="url(#22447ee027)"><path fill="#e69613" d="M 22.203125 15.800781 C 22.269531 17.253906 21.273438 18.484375 19.972656 18.546875 C 18.671875 18.605469 17.5625 17.476562 17.492188 16.023438 C 17.421875 14.566406 18.421875 13.339844 19.722656 13.277344 C 21.023438 13.214844 22.132812 14.34375 22.203125 15.800781 " fill-opacity="1" fill-rule="nonzero"/></g></g></g><g clip-path="url(#ec564b22bb)"><g transform="matrix(1, 0, 0, 1, 12, -0.000000000000001478)"><g clip-path="url(#6445bf62de)"><g clip-path="url(#2b7ef3ee78)"><g transform="matrix(1, 0, 0, 1, -0.000000000000001776, -0.000000000000001478)"><g clip-path="url(#fd043abc89)"><g clip-path="url(#6d96a85637)"><g mask="url(#e062295e94)"><g transform="matrix(1, 0, 0, 1, -0.000000000000001776, -0.000000000000001478)"><g clip-path="url(#702dad80bb)"><g clip-path="url(#b28d168c03)"><path fill="url(#d5cd80f3e7)" d="M 13.445312 0 L 13.445312 37.007812 L 99.511719 37.007812 L 99.511719 0 Z M 13.445312 0 " fill-rule="nonzero"/></g></g></g></g></g></g></g></g></g></g></g><g transform="matrix(1, 0, 0, 1, 26, 17)"><g clip-path="url(#bde9ca3961)"><g fill="#004aad" fill-opacity="1"><g transform="translate(0.936416, 13.037002)"><g><path d="M 4.921875 -5.296875 C 4.796875 -5.296875 4.734375 -5.347656 4.734375 -5.453125 C 4.734375 -5.472656 4.734375 -5.488281 4.734375 -5.5 C 4.742188 -5.507812 4.75 -5.515625 4.75 -5.515625 C 4.800781 -5.691406 4.84375 -5.859375 4.875 -6.015625 C 4.90625 -6.179688 4.921875 -6.347656 4.921875 -6.515625 C 4.921875 -6.753906 4.882812 -6.953125 4.8125 -7.109375 C 4.738281 -7.265625 4.597656 -7.34375 4.390625 -7.34375 C 4.171875 -7.34375 3.9375 -7.234375 3.6875 -7.015625 C 3.445312 -6.796875 3.222656 -6.5 3.015625 -6.125 C 2.804688 -5.757812 2.640625 -5.351562 2.515625 -4.90625 C 2.390625 -4.46875 2.328125 -4.019531 2.328125 -3.5625 C 2.328125 -2.925781 2.445312 -2.476562 2.6875 -2.21875 C 2.9375 -1.957031 3.210938 -1.828125 3.515625 -1.828125 C 3.722656 -1.828125 3.941406 -1.878906 4.171875 -1.984375 C 4.398438 -2.097656 4.613281 -2.222656 4.8125 -2.359375 C 5.019531 -2.503906 5.179688 -2.625 5.296875 -2.71875 C 5.296875 -2.71875 5.3125 -2.726562 5.34375 -2.75 C 5.375 -2.78125 5.410156 -2.796875 5.453125 -2.796875 C 5.535156 -2.796875 5.601562 -2.765625 5.65625 -2.703125 C 5.695312 -2.660156 5.75 -2.570312 5.8125 -2.4375 C 5.875 -2.3125 5.929688 -2.179688 5.984375 -2.046875 C 6.046875 -1.921875 6.085938 -1.835938 6.109375 -1.796875 C 6.128906 -1.753906 6.144531 -1.710938 6.15625 -1.671875 C 6.164062 -1.628906 6.171875 -1.585938 6.171875 -1.546875 C 6.171875 -1.472656 6.144531 -1.398438 6.09375 -1.328125 C 5.957031 -1.148438 5.757812 -0.953125 5.5 -0.734375 C 5.25 -0.523438 4.960938 -0.34375 4.640625 -0.1875 C 4.328125 -0.0390625 4.007812 0.03125 3.6875 0.03125 C 3.394531 0.03125 3.0625 -0.0351562 2.6875 -0.171875 C 2.320312 -0.316406 1.972656 -0.503906 1.640625 -0.734375 C 1.316406 -0.960938 1.066406 -1.207031 0.890625 -1.46875 C 0.710938 -1.738281 0.570312 -2.039062 0.46875 -2.375 C 0.375 -2.707031 0.328125 -3.0625 0.328125 -3.4375 C 0.328125 -3.925781 0.382812 -4.429688 0.5 -4.953125 C 0.625 -5.472656 0.789062 -5.96875 1 -6.4375 C 1.21875 -6.914062 1.472656 -7.347656 1.765625 -7.734375 C 2.066406 -8.117188 2.398438 -8.421875 2.765625 -8.640625 C 3.140625 -8.867188 3.535156 -8.984375 3.953125 -8.984375 C 4.078125 -8.984375 4.253906 -8.953125 4.484375 -8.890625 C 4.722656 -8.828125 4.976562 -8.738281 5.25 -8.625 C 5.53125 -8.519531 5.796875 -8.382812 6.046875 -8.21875 C 6.296875 -8.0625 6.5 -7.878906 6.65625 -7.671875 C 6.820312 -7.460938 6.90625 -7.242188 6.90625 -7.015625 C 6.90625 -6.765625 6.859375 -6.503906 6.765625 -6.234375 C 6.671875 -5.960938 6.585938 -5.738281 6.515625 -5.5625 C 6.453125 -5.40625 6.335938 -5.328125 6.171875 -5.328125 C 6.109375 -5.316406 5.988281 -5.304688 5.8125 -5.296875 C 5.644531 -5.296875 5.472656 -5.296875 5.296875 -5.296875 C 5.117188 -5.296875 4.992188 -5.296875 4.921875 -5.296875 Z M 4.921875 -5.296875 "/></g></g></g><g fill="#004aad" fill-opacity="1"><g transform="translate(7.565173, 13.037002)"><g><path d="M 2.671875 -1.578125 C 2.878906 -1.578125 3.066406 -1.671875 3.234375 -1.859375 C 3.398438 -2.046875 3.539062 -2.28125 3.65625 -2.5625 C 3.78125 -2.851562 3.875 -3.15625 3.9375 -3.46875 C 4 -3.789062 4.03125 -4.078125 4.03125 -4.328125 C 4.03125 -4.628906 3.984375 -4.867188 3.890625 -5.046875 C 3.796875 -5.234375 3.660156 -5.328125 3.484375 -5.328125 C 3.296875 -5.328125 3.117188 -5.234375 2.953125 -5.046875 C 2.796875 -4.859375 2.648438 -4.613281 2.515625 -4.3125 C 2.390625 -4.019531 2.289062 -3.710938 2.21875 -3.390625 C 2.144531 -3.066406 2.109375 -2.769531 2.109375 -2.5 C 2.109375 -2.238281 2.15625 -2.019531 2.25 -1.84375 C 2.34375 -1.664062 2.484375 -1.578125 2.671875 -1.578125 Z M 5.984375 -4.234375 L 5.984375 -4.171875 C 5.984375 -3.921875 5.953125 -3.625 5.890625 -3.28125 C 5.828125 -2.9375 5.726562 -2.570312 5.59375 -2.1875 C 5.457031 -1.8125 5.273438 -1.457031 5.046875 -1.125 C 4.828125 -0.789062 4.554688 -0.519531 4.234375 -0.3125 C 3.910156 -0.101562 3.535156 0 3.109375 0 C 2.910156 0 2.660156 -0.0351562 2.359375 -0.109375 C 2.066406 -0.191406 1.773438 -0.304688 1.484375 -0.453125 C 1.203125 -0.597656 0.957031 -0.773438 0.75 -0.984375 C 0.375 -1.390625 0.1875 -1.984375 0.1875 -2.765625 C 0.1875 -3.066406 0.222656 -3.398438 0.296875 -3.765625 C 0.367188 -4.140625 0.476562 -4.503906 0.625 -4.859375 C 0.769531 -5.222656 0.953125 -5.554688 1.171875 -5.859375 C 1.390625 -6.171875 1.644531 -6.414062 1.9375 -6.59375 C 2.238281 -6.78125 2.570312 -6.875 2.9375 -6.875 C 3.164062 -6.875 3.441406 -6.820312 3.765625 -6.71875 C 4.085938 -6.625 4.40625 -6.492188 4.71875 -6.328125 C 5.03125 -6.160156 5.28125 -5.976562 5.46875 -5.78125 C 5.644531 -5.601562 5.769531 -5.367188 5.84375 -5.078125 C 5.925781 -4.785156 5.972656 -4.503906 5.984375 -4.234375 Z M 5.984375 -4.234375 "/></g></g></g><g fill="#004aad" fill-opacity="1"><g transform="translate(13.685055, 13.037002)"><g><path d="M 6.140625 -5.59375 C 6.390625 -5.957031 6.65625 -6.253906 6.9375 -6.484375 C 7.21875 -6.722656 7.476562 -6.84375 7.71875 -6.84375 C 7.875 -6.84375 8.046875 -6.785156 8.234375 -6.671875 C 8.429688 -6.566406 8.613281 -6.429688 8.78125 -6.265625 C 8.945312 -6.097656 9.082031 -5.921875 9.1875 -5.734375 C 9.300781 -5.546875 9.359375 -5.367188 9.359375 -5.203125 C 9.359375 -5.046875 9.332031 -4.773438 9.28125 -4.390625 C 9.226562 -4.003906 9.15625 -3.5625 9.0625 -3.0625 C 8.976562 -2.570312 8.878906 -2.070312 8.765625 -1.5625 C 8.660156 -1.0625 8.554688 -0.617188 8.453125 -0.234375 C 8.410156 -0.0976562 8.316406 -0.03125 8.171875 -0.03125 C 8.066406 -0.03125 7.921875 -0.0546875 7.734375 -0.109375 C 7.546875 -0.160156 7.359375 -0.222656 7.171875 -0.296875 C 6.992188 -0.378906 6.863281 -0.441406 6.78125 -0.484375 C 6.65625 -0.546875 6.59375 -0.644531 6.59375 -0.78125 C 6.59375 -0.789062 6.59375 -0.804688 6.59375 -0.828125 C 6.601562 -0.859375 6.609375 -0.875 6.609375 -0.875 C 6.609375 -0.875 6.632812 -0.972656 6.6875 -1.171875 C 6.738281 -1.367188 6.796875 -1.625 6.859375 -1.9375 C 6.929688 -2.25 7 -2.578125 7.0625 -2.921875 C 7.125 -3.273438 7.179688 -3.601562 7.234375 -3.90625 C 7.285156 -4.21875 7.3125 -4.460938 7.3125 -4.640625 C 7.3125 -4.890625 7.265625 -5.015625 7.171875 -5.015625 C 7.085938 -5.015625 6.9375 -4.953125 6.71875 -4.828125 C 6.5 -4.703125 6.273438 -4.515625 6.046875 -4.265625 C 6.003906 -4.222656 5.96875 -4.160156 5.9375 -4.078125 C 5.90625 -4.003906 5.878906 -3.925781 5.859375 -3.84375 C 5.796875 -3.476562 5.722656 -3.078125 5.640625 -2.640625 C 5.554688 -2.210938 5.46875 -1.785156 5.375 -1.359375 C 5.28125 -0.929688 5.191406 -0.554688 5.109375 -0.234375 C 5.066406 -0.0976562 4.972656 -0.03125 4.828125 -0.03125 C 4.722656 -0.03125 4.578125 -0.0546875 4.390625 -0.109375 C 4.203125 -0.160156 4.015625 -0.222656 3.828125 -0.296875 C 3.648438 -0.367188 3.515625 -0.425781 3.421875 -0.46875 C 3.304688 -0.539062 3.25 -0.632812 3.25 -0.75 C 3.25 -0.769531 3.25 -0.789062 3.25 -0.8125 C 3.257812 -0.832031 3.265625 -0.84375 3.265625 -0.84375 C 3.265625 -0.84375 3.289062 -0.941406 3.34375 -1.140625 C 3.394531 -1.347656 3.453125 -1.609375 3.515625 -1.921875 C 3.578125 -2.234375 3.640625 -2.5625 3.703125 -2.90625 C 3.773438 -3.257812 3.835938 -3.585938 3.890625 -3.890625 C 3.941406 -4.203125 3.96875 -4.453125 3.96875 -4.640625 C 3.96875 -4.890625 3.921875 -5.015625 3.828125 -5.015625 C 3.742188 -5.015625 3.597656 -4.953125 3.390625 -4.828125 C 3.191406 -4.703125 2.976562 -4.523438 2.75 -4.296875 C 2.6875 -4.234375 2.640625 -4.164062 2.609375 -4.09375 C 2.578125 -4.019531 2.550781 -3.953125 2.53125 -3.890625 C 2.445312 -3.484375 2.359375 -3.039062 2.265625 -2.5625 C 2.171875 -2.09375 2.085938 -1.648438 2.015625 -1.234375 C 1.941406 -0.816406 1.878906 -0.484375 1.828125 -0.234375 C 1.785156 -0.0976562 1.695312 -0.03125 1.5625 -0.03125 C 1.476562 -0.03125 1.34375 -0.0507812 1.15625 -0.09375 C 0.976562 -0.144531 0.796875 -0.203125 0.609375 -0.265625 C 0.421875 -0.328125 0.28125 -0.378906 0.1875 -0.421875 C 0.0703125 -0.484375 0.015625 -0.578125 0.015625 -0.703125 C 0.015625 -0.742188 0.0351562 -0.898438 0.078125 -1.171875 C 0.117188 -1.453125 0.175781 -1.800781 0.25 -2.21875 C 0.320312 -2.644531 0.398438 -3.09375 0.484375 -3.5625 C 0.566406 -4.03125 0.644531 -4.484375 0.71875 -4.921875 C 0.789062 -5.359375 0.851562 -5.734375 0.90625 -6.046875 C 0.957031 -6.359375 0.984375 -6.554688 0.984375 -6.640625 C 0.992188 -6.710938 1.023438 -6.769531 1.078125 -6.8125 C 1.128906 -6.851562 1.1875 -6.875 1.25 -6.875 C 1.289062 -6.875 1.394531 -6.859375 1.5625 -6.828125 C 1.738281 -6.796875 1.921875 -6.757812 2.109375 -6.71875 C 2.296875 -6.675781 2.441406 -6.632812 2.546875 -6.59375 C 2.617188 -6.582031 2.675781 -6.546875 2.71875 -6.484375 C 2.769531 -6.421875 2.796875 -6.335938 2.796875 -6.234375 L 2.796875 -5.859375 C 2.796875 -5.796875 2.816406 -5.765625 2.859375 -5.765625 C 2.878906 -5.765625 2.898438 -5.773438 2.921875 -5.796875 C 2.941406 -5.816406 2.953125 -5.828125 2.953125 -5.828125 C 3.191406 -6.128906 3.4375 -6.375 3.6875 -6.5625 C 3.9375 -6.75 4.171875 -6.84375 4.390625 -6.84375 C 4.566406 -6.84375 4.753906 -6.78125 4.953125 -6.65625 C 5.148438 -6.539062 5.332031 -6.390625 5.5 -6.203125 C 5.675781 -6.015625 5.8125 -5.820312 5.90625 -5.625 C 5.90625 -5.625 5.914062 -5.601562 5.9375 -5.5625 C 5.957031 -5.53125 5.988281 -5.515625 6.03125 -5.515625 C 6.0625 -5.515625 6.097656 -5.539062 6.140625 -5.59375 Z M 6.140625 -5.59375 "/></g></g></g><g fill="#004aad" fill-opacity="1"><g transform="translate(23.206359, 13.037002)"><g><path d="M 6.140625 -5.59375 C 6.390625 -5.957031 6.65625 -6.253906 6.9375 -6.484375 C 7.21875 -6.722656 7.476562 -6.84375 7.71875 -6.84375 C 7.875 -6.84375 8.046875 -6.785156 8.234375 -6.671875 C 8.429688 -6.566406 8.613281 -6.429688 8.78125 -6.265625 C 8.945312 -6.097656 9.082031 -5.921875 9.1875 -5.734375 C 9.300781 -5.546875 9.359375 -5.367188 9.359375 -5.203125 C 9.359375 -5.046875 9.332031 -4.773438 9.28125 -4.390625 C 9.226562 -4.003906 9.15625 -3.5625 9.0625 -3.0625 C 8.976562 -2.570312 8.878906 -2.070312 8.765625 -1.5625 C 8.660156 -1.0625 8.554688 -0.617188 8.453125 -0.234375 C 8.410156 -0.0976562 8.316406 -0.03125 8.171875 -0.03125 C 8.066406 -0.03125 7.921875 -0.0546875 7.734375 -0.109375 C 7.546875 -0.160156 7.359375 -0.222656 7.171875 -0.296875 C 6.992188 -0.378906 6.863281 -0.441406 6.78125 -0.484375 C 6.65625 -0.546875 6.59375 -0.644531 6.59375 -0.78125 C 6.59375 -0.789062 6.59375 -0.804688 6.59375 -0.828125 C 6.601562 -0.859375 6.609375 -0.875 6.609375 -0.875 C 6.609375 -0.875 6.632812 -0.972656 6.6875 -1.171875 C 6.738281 -1.367188 6.796875 -1.625 6.859375 -1.9375 C 6.929688 -2.25 7 -2.578125 7.0625 -2.921875 C 7.125 -3.273438 7.179688 -3.601562 7.234375 -3.90625 C 7.285156 -4.21875 7.3125 -4.460938 7.3125 -4.640625 C 7.3125 -4.890625 7.265625 -5.015625 7.171875 -5.015625 C 7.085938 -5.015625 6.9375 -4.953125 6.71875 -4.828125 C 6.5 -4.703125 6.273438 -4.515625 6.046875 -4.265625 C 6.003906 -4.222656 5.96875 -4.160156 5.9375 -4.078125 C 5.90625 -4.003906 5.878906 -3.925781 5.859375 -3.84375 C 5.796875 -3.476562 5.722656 -3.078125 5.640625 -2.640625 C 5.554688 -2.210938 5.46875 -1.785156 5.375 -1.359375 C 5.28125 -0.929688 5.191406 -0.554688 5.109375 -0.234375 C 5.066406 -0.0976562 4.972656 -0.03125 4.828125 -0.03125 C 4.722656 -0.03125 4.578125 -0.0546875 4.390625 -0.109375 C 4.203125 -0.160156 4.015625 -0.222656 3.828125 -0.296875 C 3.648438 -0.367188 3.515625 -0.425781 3.421875 -0.46875 C 3.304688 -0.539062 3.25 -0.632812 3.25 -0.75 C 3.25 -0.769531 3.25 -0.789062 3.25 -0.8125 C 3.257812 -0.832031 3.265625 -0.84375 3.265625 -0.84375 C 3.265625 -0.84375 3.289062 -0.941406 3.34375 -1.140625 C 3.394531 -1.347656 3.453125 -1.609375 3.515625 -1.921875 C 3.578125 -2.234375 3.640625 -2.5625 3.703125 -2.90625 C 3.773438 -3.257812 3.835938 -3.585938 3.890625 -3.890625 C 3.941406 -4.203125 3.96875 -4.453125 3.96875 -4.640625 C 3.96875 -4.890625 3.921875 -5.015625 3.828125 -5.015625 C 3.742188 -5.015625 3.597656 -4.953125 3.390625 -4.828125 C 3.191406 -4.703125 2.976562 -4.523438 2.75 -4.296875 C 2.6875 -4.234375 2.640625 -4.164062 2.609375 -4.09375 C 2.578125 -4.019531 2.550781 -3.953125 2.53125 -3.890625 C 2.445312 -3.484375 2.359375 -3.039062 2.265625 -2.5625 C 2.171875 -2.09375 2.085938 -1.648438 2.015625 -1.234375 C 1.941406 -0.816406 1.878906 -0.484375 1.828125 -0.234375 C 1.785156 -0.0976562 1.695312 -0.03125 1.5625 -0.03125 C 1.476562 -0.03125 1.34375 -0.0507812 1.15625 -0.09375 C 0.976562 -0.144531 0.796875 -0.203125 0.609375 -0.265625 C 0.421875 -0.328125 0.28125 -0.378906 0.1875 -0.421875 C 0.0703125 -0.484375 0.015625 -0.578125 0.015625 -0.703125 C 0.015625 -0.742188 0.0351562 -0.898438 0.078125 -1.171875 C 0.117188 -1.453125 0.175781 -1.800781 0.25 -2.21875 C 0.320312 -2.644531 0.398438 -3.09375 0.484375 -3.5625 C 0.566406 -4.03125 0.644531 -4.484375 0.71875 -4.921875 C 0.789062 -5.359375 0.851562 -5.734375 0.90625 -6.046875 C 0.957031 -6.359375 0.984375 -6.554688 0.984375 -6.640625 C 0.992188 -6.710938 1.023438 -6.769531 1.078125 -6.8125 C 1.128906 -6.851562 1.1875 -6.875 1.25 -6.875 C 1.289062 -6.875 1.394531 -6.859375 1.5625 -6.828125 C 1.738281 -6.796875 1.921875 -6.757812 2.109375 -6.71875 C 2.296875 -6.675781 2.441406 -6.632812 2.546875 -6.59375 C 2.617188 -6.582031 2.675781 -6.546875 2.71875 -6.484375 C 2.769531 -6.421875 2.796875 -6.335938 2.796875 -6.234375 L 2.796875 -5.859375 C 2.796875 -5.796875 2.816406 -5.765625 2.859375 -5.765625 C 2.878906 -5.765625 2.898438 -5.773438 2.921875 -5.796875 C 2.941406 -5.816406 2.953125 -5.828125 2.953125 -5.828125 C 3.191406 -6.128906 3.4375 -6.375 3.6875 -6.5625 C 3.9375 -6.75 4.171875 -6.84375 4.390625 -6.84375 C 4.566406 -6.84375 4.753906 -6.78125 4.953125 -6.65625 C 5.148438 -6.539062 5.332031 -6.390625 5.5 -6.203125 C 5.675781 -6.015625 5.8125 -5.820312 5.90625 -5.625 C 5.90625 -5.625 5.914062 -5.601562 5.9375 -5.5625 C 5.957031 -5.53125 5.988281 -5.515625 6.03125 -5.515625 C 6.0625 -5.515625 6.097656 -5.539062 6.140625 -5.59375 Z M 6.140625 -5.59375 "/></g></g></g><g fill="#004aad" fill-opacity="1"><g transform="translate(32.727664, 13.037002)"><g><path d="M 6.203125 -6.421875 C 6.335938 -6.359375 6.40625 -6.273438 6.40625 -6.171875 C 6.40625 -6.148438 6.398438 -6.125 6.390625 -6.09375 C 6.378906 -6.0625 6.375 -6.046875 6.375 -6.046875 C 6.21875 -5.546875 6.082031 -5.019531 5.96875 -4.46875 C 5.851562 -3.925781 5.753906 -3.382812 5.671875 -2.84375 C 5.597656 -2.3125 5.535156 -1.816406 5.484375 -1.359375 C 5.441406 -0.910156 5.414062 -0.535156 5.40625 -0.234375 C 5.40625 -0.171875 5.382812 -0.117188 5.34375 -0.078125 C 5.3125 -0.0351562 5.265625 -0.015625 5.203125 -0.015625 C 5.109375 -0.015625 4.984375 -0.03125 4.828125 -0.0625 C 4.679688 -0.09375 4.535156 -0.128906 4.390625 -0.171875 C 4.253906 -0.210938 4.15625 -0.242188 4.09375 -0.265625 C 3.957031 -0.316406 3.867188 -0.4375 3.828125 -0.625 C 3.816406 -0.675781 3.804688 -0.769531 3.796875 -0.90625 C 3.796875 -1.039062 3.789062 -1.160156 3.78125 -1.265625 C 3.78125 -1.367188 3.753906 -1.421875 3.703125 -1.421875 C 3.691406 -1.421875 3.675781 -1.40625 3.65625 -1.375 C 3.632812 -1.351562 3.625 -1.34375 3.625 -1.34375 C 3.382812 -0.9375 3.125 -0.609375 2.84375 -0.359375 C 2.5625 -0.109375 2.296875 0.015625 2.046875 0.015625 C 1.785156 0.015625 1.507812 -0.0859375 1.21875 -0.296875 C 0.9375 -0.503906 0.695312 -0.769531 0.5 -1.09375 C 0.3125 -1.414062 0.21875 -1.753906 0.21875 -2.109375 C 0.21875 -2.523438 0.25 -2.945312 0.3125 -3.375 C 0.375 -3.8125 0.453125 -4.234375 0.546875 -4.640625 C 0.640625 -5.054688 0.738281 -5.429688 0.84375 -5.765625 C 0.945312 -6.097656 1.039062 -6.367188 1.125 -6.578125 C 1.175781 -6.710938 1.265625 -6.78125 1.390625 -6.78125 C 1.453125 -6.78125 1.570312 -6.75 1.75 -6.6875 C 1.925781 -6.625 2.109375 -6.550781 2.296875 -6.46875 C 2.492188 -6.394531 2.644531 -6.328125 2.75 -6.265625 C 2.851562 -6.203125 2.90625 -6.117188 2.90625 -6.015625 C 2.90625 -5.972656 2.898438 -5.929688 2.890625 -5.890625 C 2.878906 -5.859375 2.875 -5.84375 2.875 -5.84375 C 2.8125 -5.644531 2.734375 -5.378906 2.640625 -5.046875 C 2.554688 -4.722656 2.472656 -4.378906 2.390625 -4.015625 C 2.304688 -3.648438 2.238281 -3.300781 2.1875 -2.96875 C 2.132812 -2.644531 2.109375 -2.390625 2.109375 -2.203125 C 2.109375 -1.984375 2.140625 -1.875 2.203125 -1.875 C 2.378906 -1.875 2.601562 -1.972656 2.875 -2.171875 C 3.144531 -2.378906 3.390625 -2.625 3.609375 -2.90625 C 3.679688 -3 3.734375 -3.117188 3.765625 -3.265625 C 3.828125 -3.671875 3.898438 -4.082031 3.984375 -4.5 C 4.066406 -4.914062 4.15625 -5.304688 4.25 -5.671875 C 4.351562 -6.046875 4.445312 -6.351562 4.53125 -6.59375 C 4.570312 -6.726562 4.671875 -6.796875 4.828125 -6.796875 C 4.890625 -6.796875 5.003906 -6.773438 5.171875 -6.734375 C 5.335938 -6.703125 5.515625 -6.65625 5.703125 -6.59375 C 5.898438 -6.53125 6.066406 -6.472656 6.203125 -6.421875 Z M 6.203125 -6.421875 "/></g></g></g><g fill="#004aad" fill-opacity="1"><g transform="translate(39.048416, 13.037002)"><g><path d="M 2.9375 -5.65625 C 3.195312 -5.988281 3.472656 -6.269531 3.765625 -6.5 C 4.054688 -6.726562 4.320312 -6.84375 4.5625 -6.84375 C 4.738281 -6.84375 4.921875 -6.785156 5.109375 -6.671875 C 5.296875 -6.566406 5.46875 -6.429688 5.625 -6.265625 C 5.789062 -6.097656 5.925781 -5.921875 6.03125 -5.734375 C 6.144531 -5.546875 6.203125 -5.367188 6.203125 -5.203125 C 6.203125 -5.046875 6.171875 -4.773438 6.109375 -4.390625 C 6.054688 -4.003906 5.984375 -3.5625 5.890625 -3.0625 C 5.804688 -2.570312 5.707031 -2.070312 5.59375 -1.5625 C 5.488281 -1.0625 5.382812 -0.617188 5.28125 -0.234375 C 5.257812 -0.171875 5.222656 -0.117188 5.171875 -0.078125 C 5.117188 -0.0351562 5.0625 -0.015625 5 -0.015625 C 4.894531 -0.015625 4.75 -0.0390625 4.5625 -0.09375 C 4.382812 -0.144531 4.203125 -0.207031 4.015625 -0.28125 C 3.835938 -0.351562 3.703125 -0.414062 3.609375 -0.46875 C 3.492188 -0.539062 3.4375 -0.644531 3.4375 -0.78125 C 3.4375 -0.800781 3.4375 -0.820312 3.4375 -0.84375 C 3.445312 -0.875 3.453125 -0.890625 3.453125 -0.890625 C 3.453125 -0.890625 3.472656 -0.988281 3.515625 -1.1875 C 3.566406 -1.382812 3.625 -1.632812 3.6875 -1.9375 C 3.757812 -2.238281 3.828125 -2.5625 3.890625 -2.90625 C 3.960938 -3.25 4.019531 -3.566406 4.0625 -3.859375 C 4.113281 -4.160156 4.140625 -4.394531 4.140625 -4.5625 C 4.140625 -4.8125 4.09375 -4.9375 4 -4.9375 C 3.90625 -4.9375 3.734375 -4.863281 3.484375 -4.71875 C 3.234375 -4.570312 2.984375 -4.367188 2.734375 -4.109375 C 2.671875 -4.046875 2.617188 -3.976562 2.578125 -3.90625 C 2.546875 -3.832031 2.519531 -3.757812 2.5 -3.6875 C 2.425781 -3.28125 2.34375 -2.859375 2.25 -2.421875 C 2.15625 -1.984375 2.070312 -1.570312 2 -1.1875 C 1.925781 -0.800781 1.863281 -0.484375 1.8125 -0.234375 C 1.769531 -0.0976562 1.679688 -0.03125 1.546875 -0.03125 C 1.453125 -0.03125 1.304688 -0.0546875 1.109375 -0.109375 C 0.921875 -0.160156 0.734375 -0.21875 0.546875 -0.28125 C 0.367188 -0.34375 0.25 -0.390625 0.1875 -0.421875 C 0.0703125 -0.484375 0.015625 -0.578125 0.015625 -0.703125 C 0.015625 -0.722656 0.0351562 -0.851562 0.078125 -1.09375 C 0.117188 -1.332031 0.171875 -1.644531 0.234375 -2.03125 C 0.296875 -2.425781 0.363281 -2.847656 0.4375 -3.296875 C 0.507812 -3.753906 0.582031 -4.203125 0.65625 -4.640625 C 0.726562 -5.078125 0.789062 -5.472656 0.84375 -5.828125 C 0.90625 -6.191406 0.953125 -6.460938 0.984375 -6.640625 C 1.003906 -6.796875 1.09375 -6.875 1.25 -6.875 C 1.300781 -6.875 1.410156 -6.859375 1.578125 -6.828125 C 1.753906 -6.796875 1.9375 -6.757812 2.125 -6.71875 C 2.3125 -6.675781 2.445312 -6.632812 2.53125 -6.59375 C 2.6875 -6.53125 2.765625 -6.410156 2.765625 -6.234375 C 2.765625 -6.171875 2.765625 -6.09375 2.765625 -6 C 2.773438 -5.90625 2.78125 -5.804688 2.78125 -5.703125 C 2.78125 -5.617188 2.800781 -5.578125 2.84375 -5.578125 C 2.851562 -5.578125 2.867188 -5.585938 2.890625 -5.609375 C 2.921875 -5.640625 2.9375 -5.65625 2.9375 -5.65625 Z M 2.9375 -5.65625 "/></g></g></g><g fill="#004aad" fill-opacity="1"><g transform="translate(45.395953, 13.037002)"><g><path d="M 2.1875 -9.6875 C 2.394531 -9.6875 2.609375 -9.648438 2.828125 -9.578125 C 3.046875 -9.503906 3.226562 -9.382812 3.375 -9.21875 C 3.53125 -9.0625 3.609375 -8.847656 3.609375 -8.578125 C 3.609375 -8.222656 3.488281 -7.929688 3.25 -7.703125 C 3.019531 -7.472656 2.703125 -7.359375 2.296875 -7.359375 C 1.921875 -7.359375 1.640625 -7.472656 1.453125 -7.703125 C 1.265625 -7.929688 1.171875 -8.195312 1.171875 -8.5 C 1.171875 -8.726562 1.234375 -8.929688 1.359375 -9.109375 C 1.484375 -9.296875 1.613281 -9.445312 1.75 -9.5625 C 1.875 -9.644531 2.019531 -9.6875 2.1875 -9.6875 Z M 1.859375 -0.234375 C 1.835938 -0.0859375 1.753906 -0.015625 1.609375 -0.015625 C 1.535156 -0.015625 1.40625 -0.0351562 1.21875 -0.078125 C 1.039062 -0.117188 0.859375 -0.164062 0.671875 -0.21875 C 0.484375 -0.28125 0.347656 -0.328125 0.265625 -0.359375 C 0.117188 -0.421875 0.046875 -0.53125 0.046875 -0.6875 C 0.046875 -0.90625 0.0664062 -1.210938 0.109375 -1.609375 C 0.160156 -2.003906 0.222656 -2.441406 0.296875 -2.921875 C 0.378906 -3.398438 0.46875 -3.878906 0.5625 -4.359375 C 0.65625 -4.835938 0.742188 -5.269531 0.828125 -5.65625 C 0.921875 -6.050781 1.003906 -6.363281 1.078125 -6.59375 C 1.117188 -6.726562 1.222656 -6.796875 1.390625 -6.796875 C 1.453125 -6.796875 1.566406 -6.773438 1.734375 -6.734375 C 1.910156 -6.703125 2.09375 -6.660156 2.28125 -6.609375 C 2.476562 -6.566406 2.640625 -6.519531 2.765625 -6.46875 C 2.890625 -6.425781 2.953125 -6.347656 2.953125 -6.234375 C 2.953125 -6.222656 2.953125 -6.203125 2.953125 -6.171875 C 2.953125 -6.148438 2.953125 -6.140625 2.953125 -6.140625 C 2.835938 -5.703125 2.726562 -5.222656 2.625 -4.703125 C 2.519531 -4.179688 2.414062 -3.65625 2.3125 -3.125 C 2.21875 -2.59375 2.128906 -2.078125 2.046875 -1.578125 C 1.960938 -1.078125 1.898438 -0.628906 1.859375 -0.234375 Z M 1.859375 -0.234375 "/></g></g></g><g fill="#004aad" fill-opacity="1"><g transform="translate(48.275112, 13.037002)"><g><path d="M 4.625 -5.34375 C 4.59375 -5.1875 4.484375 -5.109375 4.296875 -5.109375 L 3.328125 -5.109375 C 3.242188 -5.109375 3.175781 -5.082031 3.125 -5.03125 C 3.082031 -4.988281 3.054688 -4.929688 3.046875 -4.859375 C 2.929688 -4.359375 2.835938 -3.914062 2.765625 -3.53125 C 2.703125 -3.144531 2.671875 -2.859375 2.671875 -2.671875 C 2.671875 -2.398438 2.722656 -2.175781 2.828125 -2 C 2.941406 -1.832031 3.125 -1.6875 3.375 -1.5625 C 3.46875 -1.519531 3.515625 -1.445312 3.515625 -1.34375 C 3.515625 -1.300781 3.507812 -1.265625 3.5 -1.234375 C 3.425781 -1.078125 3.328125 -0.894531 3.203125 -0.6875 C 3.085938 -0.488281 2.960938 -0.3125 2.828125 -0.15625 C 2.734375 -0.0703125 2.628906 -0.03125 2.515625 -0.03125 C 2.484375 -0.03125 2.453125 -0.03125 2.421875 -0.03125 C 2.390625 -0.0390625 2.375 -0.046875 2.375 -0.046875 C 1.820312 -0.234375 1.398438 -0.535156 1.109375 -0.953125 C 0.816406 -1.378906 0.671875 -1.847656 0.671875 -2.359375 C 0.671875 -2.566406 0.6875 -2.816406 0.71875 -3.109375 C 0.757812 -3.398438 0.804688 -3.679688 0.859375 -3.953125 C 0.910156 -4.234375 0.953125 -4.46875 0.984375 -4.65625 C 1.023438 -4.84375 1.046875 -4.945312 1.046875 -4.96875 C 1.046875 -5.070312 0.992188 -5.125 0.890625 -5.125 L 0.765625 -5.125 C 0.609375 -5.125 0.523438 -5.210938 0.515625 -5.390625 L 0.515625 -5.9375 C 0.515625 -6.03125 0.515625 -6.125 0.515625 -6.21875 C 0.515625 -6.3125 0.515625 -6.394531 0.515625 -6.46875 C 0.523438 -6.539062 0.550781 -6.601562 0.59375 -6.65625 C 0.644531 -6.707031 0.710938 -6.738281 0.796875 -6.75 L 1.265625 -6.78125 C 1.347656 -6.789062 1.40625 -6.820312 1.4375 -6.875 C 1.476562 -6.925781 1.507812 -6.984375 1.53125 -7.046875 C 1.644531 -7.460938 1.753906 -7.84375 1.859375 -8.1875 C 1.972656 -8.539062 2.0625 -8.800781 2.125 -8.96875 C 2.175781 -9.09375 2.265625 -9.15625 2.390625 -9.15625 C 2.515625 -9.15625 2.664062 -9.132812 2.84375 -9.09375 C 3.03125 -9.050781 3.207031 -9 3.375 -8.9375 C 3.550781 -8.875 3.691406 -8.816406 3.796875 -8.765625 C 3.921875 -8.722656 3.984375 -8.648438 3.984375 -8.546875 C 3.984375 -8.492188 3.960938 -8.390625 3.921875 -8.234375 C 3.878906 -8.085938 3.828125 -7.929688 3.765625 -7.765625 C 3.710938 -7.597656 3.664062 -7.441406 3.625 -7.296875 C 3.582031 -7.148438 3.5625 -7.054688 3.5625 -7.015625 C 3.5625 -6.910156 3.613281 -6.847656 3.71875 -6.828125 C 3.851562 -6.828125 3.988281 -6.828125 4.125 -6.828125 C 4.257812 -6.828125 4.367188 -6.820312 4.453125 -6.8125 C 4.546875 -6.800781 4.609375 -6.765625 4.640625 -6.703125 C 4.679688 -6.640625 4.703125 -6.570312 4.703125 -6.5 L 4.703125 -6.40625 C 4.703125 -6.226562 4.691406 -6.039062 4.671875 -5.84375 C 4.648438 -5.644531 4.632812 -5.476562 4.625 -5.34375 Z M 4.625 -5.34375 "/></g></g></g><g clip-path="url(#73e35cb3fc)"><g fill="#004aad" fill-opacity="1"><g transform="translate(52.747846, 13.037002)"><g><path d="M 4.5625 -6.609375 C 4.625 -6.734375 4.722656 -6.796875 4.859375 -6.796875 C 4.953125 -6.796875 5.085938 -6.769531 5.265625 -6.71875 C 5.453125 -6.664062 5.640625 -6.601562 5.828125 -6.53125 C 6.015625 -6.46875 6.148438 -6.410156 6.234375 -6.359375 C 6.335938 -6.316406 6.390625 -6.234375 6.390625 -6.109375 C 6.390625 -6.078125 6.382812 -6.039062 6.375 -6 C 6.363281 -5.96875 6.359375 -5.953125 6.359375 -5.953125 C 6.285156 -5.703125 6.195312 -5.351562 6.09375 -4.90625 C 6 -4.46875 5.898438 -3.984375 5.796875 -3.453125 C 5.703125 -2.929688 5.601562 -2.398438 5.5 -1.859375 C 5.394531 -1.316406 5.296875 -0.816406 5.203125 -0.359375 C 5.171875 -0.148438 5.097656 0.109375 4.984375 0.421875 C 4.878906 0.734375 4.722656 1.039062 4.515625 1.34375 C 4.304688 1.65625 4.035156 1.914062 3.703125 2.125 C 3.367188 2.332031 2.953125 2.4375 2.453125 2.4375 C 2.285156 2.4375 2.09375 2.40625 1.875 2.34375 C 1.65625 2.289062 1.441406 2.21875 1.234375 2.125 C 1.023438 2.03125 0.847656 1.9375 0.703125 1.84375 C 0.578125 1.769531 0.515625 1.675781 0.515625 1.5625 C 0.515625 1.5 0.535156 1.394531 0.578125 1.25 C 0.617188 1.113281 0.660156 0.976562 0.703125 0.84375 C 0.753906 0.71875 0.785156 0.644531 0.796875 0.625 C 0.835938 0.519531 0.90625 0.46875 1 0.46875 C 1.039062 0.46875 1.070312 0.472656 1.09375 0.484375 C 1.113281 0.492188 1.125 0.5 1.125 0.5 C 1.34375 0.582031 1.535156 0.644531 1.703125 0.6875 C 1.867188 0.726562 2.015625 0.75 2.140625 0.75 C 2.378906 0.75 2.585938 0.675781 2.765625 0.53125 C 2.953125 0.394531 3.101562 0.222656 3.21875 0.015625 C 3.34375 -0.191406 3.429688 -0.40625 3.484375 -0.625 C 3.546875 -0.84375 3.578125 -1.03125 3.578125 -1.1875 C 3.578125 -1.21875 3.566406 -1.234375 3.546875 -1.234375 C 3.535156 -1.234375 3.507812 -1.207031 3.46875 -1.15625 C 3.25 -0.851562 3.015625 -0.601562 2.765625 -0.40625 C 2.515625 -0.207031 2.28125 -0.109375 2.0625 -0.109375 C 1.875 -0.109375 1.675781 -0.164062 1.46875 -0.28125 C 1.257812 -0.40625 1.054688 -0.566406 0.859375 -0.765625 C 0.671875 -0.960938 0.515625 -1.179688 0.390625 -1.421875 C 0.273438 -1.671875 0.21875 -1.921875 0.21875 -2.171875 C 0.21875 -2.566406 0.25 -2.976562 0.3125 -3.40625 C 0.375 -3.832031 0.453125 -4.25 0.546875 -4.65625 C 0.648438 -5.0625 0.753906 -5.429688 0.859375 -5.765625 C 0.960938 -6.097656 1.054688 -6.367188 1.140625 -6.578125 C 1.191406 -6.710938 1.28125 -6.78125 1.40625 -6.78125 C 1.488281 -6.78125 1.625 -6.742188 1.8125 -6.671875 C 2.007812 -6.597656 2.203125 -6.519531 2.390625 -6.4375 C 2.578125 -6.363281 2.703125 -6.300781 2.765625 -6.25 C 2.859375 -6.195312 2.90625 -6.113281 2.90625 -6 C 2.90625 -5.96875 2.894531 -5.925781 2.875 -5.875 C 2.863281 -5.832031 2.859375 -5.8125 2.859375 -5.8125 C 2.796875 -5.613281 2.71875 -5.351562 2.625 -5.03125 C 2.539062 -4.707031 2.457031 -4.363281 2.375 -4 C 2.300781 -3.632812 2.238281 -3.289062 2.1875 -2.96875 C 2.132812 -2.644531 2.109375 -2.390625 2.109375 -2.203125 C 2.109375 -1.992188 2.140625 -1.890625 2.203125 -1.890625 C 2.390625 -1.890625 2.617188 -1.992188 2.890625 -2.203125 C 3.160156 -2.410156 3.40625 -2.65625 3.625 -2.9375 C 3.675781 -2.988281 3.707031 -3.035156 3.71875 -3.078125 C 3.738281 -3.117188 3.753906 -3.171875 3.765625 -3.234375 C 3.816406 -3.578125 3.882812 -3.957031 3.96875 -4.375 C 4.050781 -4.800781 4.144531 -5.210938 4.25 -5.609375 C 4.351562 -6.015625 4.457031 -6.347656 4.5625 -6.609375 Z M 4.5625 -6.609375 "/></g></g></g></g></g></g></svg>